<svg width="203" height="120" viewBox="0 0 203 120" fill="none" xmlns="http://www.w3.org/2000/svg">
<path d="M173.665 78.4441L183.542 68.5454L193.419 78.4441L183.542 88.3427L173.665 78.4441Z" fill="#AAC64D"/>
<path d="M173.665 94.7761L183.542 84.8774L193.419 94.7761L183.542 104.675L173.665 94.7761Z" fill="#AAC64D"/>
<path d="M49.1017 48.6793L55.6865 42.0802L62.2713 48.6793L55.6865 55.2784L49.1017 48.6793Z" fill="#AAC64D"/>
<path d="M13.4748 54.9321C10.2155 54.9321 7.39852 54.0222 5.02387 52.2024C2.69579 50.3358 1.20582 47.956 0.553952 45.0629C0.507391 44.8296 0.460829 44.573 0.414267 44.293C0.367705 43.9664 0.321144 43.663 0.274582 43.3831C0.274582 43.0564 0.274582 42.7998 0.274582 42.6131V42.5431C0.274582 42.2165 0.274582 42.0298 0.274582 41.9832C0.274582 41.8899 0.274582 41.7265 0.274582 41.4932C0.274582 41.2132 0.274582 40.6766 0.274582 39.8834V36.3136C0.274582 35.5204 0.274582 35.0304 0.274582 34.8438C0.274582 34.6105 0.274582 34.4471 0.274582 34.3538C0.274582 34.2605 0.274582 34.0738 0.274582 33.7938V33.7239C0.274582 33.3972 0.274582 33.2106 0.274582 33.1639C0.274582 33.0706 0.274582 32.9073 0.274582 32.6739C0.274582 32.394 0.274582 31.8807 0.274582 31.1341V16.9952C0.274582 14.5221 0.833322 12.3056 1.9508 10.3458C3.11484 8.38592 4.69794 6.84604 6.70009 5.72613C8.70225 4.55956 10.9605 3.97627 13.4748 3.97627H27.3036C29.8645 3.97627 32.1228 4.53623 34.0784 5.65614C36.0805 6.77605 37.6403 8.31592 38.7578 10.2758C39.9218 12.2356 40.5039 14.4754 40.5039 16.9952V31.1341C40.5039 31.8807 40.5039 32.394 40.5039 32.6739C40.5039 32.9073 40.5039 33.0706 40.5039 33.1639C40.5039 33.2106 40.5039 33.3972 40.5039 33.7239V33.7938C40.5039 34.0738 40.5039 34.2605 40.5039 34.3538C40.5039 34.4471 40.5039 34.6105 40.5039 34.8438C40.5039 35.0304 40.5039 35.5204 40.5039 36.3136V39.8834C40.5039 40.63 40.5039 41.1433 40.5039 41.4232C40.5039 41.6565 40.5039 41.8199 40.5039 41.9132C40.5039 41.9599 40.5039 42.1465 40.5039 42.4731V42.5431C40.5039 42.8231 40.4806 43.1264 40.434 43.4531C40.434 43.7797 40.4107 44.083 40.3642 44.363C40.3176 44.5963 40.2711 44.8296 40.2245 45.0629C39.5726 47.956 38.0594 50.3358 35.6847 52.2024C33.3567 54.0222 30.563 54.9321 27.3036 54.9321H13.4748ZM17.1066 49.4492C17.7119 49.4492 18.3172 49.1926 18.9225 48.6793C19.5744 48.1194 19.9702 46.9294 20.1099 45.1096H20.6686C20.8083 46.9294 21.1808 48.1194 21.7861 48.6793C22.4379 49.1926 23.0665 49.4492 23.6718 49.4492C24.6031 49.4492 27.8922 49.4184 30.3534 48.4693C40.6831 44.486 28.7238 20.075 28.7238 20.075C28.7238 20.075 31.1175 16.978 31.0519 14.6854C31.0127 13.3192 30.8358 12.4593 30.0741 11.3257C28.2431 8.60096 23.5554 9.99579 21.7861 9.99579H18.9924C17.2696 9.99579 12.5354 8.60096 10.7044 11.3257C9.94261 12.4593 9.76574 13.3192 9.7266 14.6854C9.66093 16.978 12.0547 20.075 12.0547 20.075C12.0547 20.075 0.0300133 44.476 10.3552 48.4693C12.8406 49.4306 16.1754 49.4492 17.1066 49.4492Z" fill="#DD2C70"/>
<path d="M64.2039 40.5133H47.2549V16.9176H43.0602V10.0822H47.2549V0H64.2039V10.0822H69.7968V16.9176H64.2039V40.5133Z" fill="#DD2C70"/>
<path d="M76.4455 54.5122C76.4455 50.1725 76.4455 45.8562 76.4455 41.5632C76.4455 37.2702 76.4455 32.9772 76.4455 28.6843C76.4455 24.3446 76.4455 20.0283 76.4455 15.7353C76.4455 13.4022 76.4455 11.1157 76.4455 8.87588C76.4455 6.5894 76.4455 4.30292 76.4455 2.01643H100.611C100.611 3.46298 100.611 5.16618 100.611 7.12602C100.611 9.0392 100.611 11.0457 100.611 13.1455C100.611 15.2454 100.611 17.2752 100.611 19.235C100.611 21.8482 100.611 24.088 100.611 25.9545C100.611 27.821 100.611 28.8709 100.611 29.1042C100.611 29.3375 100.611 29.8742 100.611 30.7141C100.611 31.5074 100.611 32.4873 100.611 33.6539C100.611 35.1937 100.611 36.9203 100.611 38.8334C100.611 40.7466 100.611 42.7065 100.611 44.713C100.611 46.6728 100.611 48.516 100.611 50.2425C100.611 51.969 100.611 53.3923 100.611 54.5122H76.4455ZM108.014 54.5122C108.014 52.6923 108.014 50.8725 108.014 49.0526C108.014 47.2328 108.014 45.4362 108.014 43.663C108.014 41.8432 108.014 40.0233 108.014 38.2035C108.014 36.3836 108.014 34.5638 108.014 32.7439C108.014 31.3907 107.665 30.4108 106.967 29.8042C106.315 29.1976 105.523 28.8709 104.592 28.8243C103.661 28.7309 102.799 28.8009 102.008 29.0342C101.263 29.2676 100.797 29.5242 100.611 29.8042L106.198 11.8156C107.875 11.069 109.667 10.5091 111.576 10.1358C113.485 9.76247 115.371 9.57582 117.234 9.57582C119.841 9.57582 122.262 9.99579 124.497 10.8357C126.779 11.6757 128.618 13.0055 130.015 14.8254C131.458 16.6452 132.18 19.0717 132.18 22.1048C132.18 25.6978 132.18 29.3142 132.18 32.9539C132.18 36.547 132.18 40.14 132.18 43.733C132.18 47.3261 132.18 50.9191 132.18 54.5122H108.014Z" fill="#DD2C70"/>
<path d="M135.596 54.5122V45.0629C135.596 44.2697 135.596 43.7797 135.596 43.5931C135.596 43.3597 135.596 43.1964 135.596 43.1031C135.596 43.0098 135.596 42.8231 135.596 42.5431V42.4731C135.596 42.1465 135.596 41.9599 135.596 41.9132C135.596 41.8199 135.596 41.6565 135.596 41.4232C135.596 41.1433 135.596 40.63 135.596 39.8834V36.3136C135.596 35.5204 135.596 35.0304 135.596 34.8438C135.596 34.6105 135.596 34.4471 135.596 34.3538C135.596 34.2605 135.596 34.0738 135.596 33.7938V33.7239C135.596 33.3972 135.596 33.1872 135.596 33.0939C135.596 33.0006 135.596 32.8373 135.596 32.6039C135.596 32.3706 135.596 31.8807 135.596 31.1341V24.1346C137.365 24.1346 138.576 23.7147 139.228 22.8747C139.926 22.0348 140.276 20.9149 140.276 19.515V15.0354C140.276 13.6355 139.926 12.4456 139.228 11.4657C138.529 10.4857 137.296 9.99579 135.526 9.99579V4.39624H171.286V14.6854H165C165 13.2855 164.651 12.1656 163.952 11.3257C163.3 10.4391 162.09 9.99579 160.32 9.99579H151.869V14.2654H160.041V19.165H151.869V23.7847H160.739C162.509 23.7847 163.719 23.4347 164.371 22.7347C165.07 21.9881 165.419 20.9149 165.419 19.515H171.705V31.1341C171.705 31.8807 171.705 32.394 171.705 32.6739C171.705 32.9073 171.705 33.0706 171.705 33.1639C171.705 33.2106 171.705 33.3972 171.705 33.7239V33.7938C171.705 34.0738 171.705 34.2605 171.705 34.3538C171.705 34.4471 171.705 34.6105 171.705 34.8438C171.705 35.0304 171.705 35.5204 171.705 36.3136V39.8834C171.705 40.63 171.705 41.1433 171.705 41.4232C171.705 41.6565 171.705 41.8199 171.705 41.9132C171.705 41.9599 171.705 42.1465 171.705 42.4731V42.5431C171.705 42.8231 171.705 43.0098 171.705 43.1031C171.705 43.1964 171.705 43.3597 171.705 43.5931C171.705 43.7797 171.705 44.2697 171.705 45.0629V54.5122H135.596Z" fill="#DD2C70"/>
<path d="M176.47 54.5122V10.0822H190.146L192.055 17.0885C192.283 15.9492 192.635 14.9467 193.112 14.0809C193.59 13.2151 194.136 12.4746 194.749 11.8594C195.386 11.2214 196.068 10.6974 196.796 10.2872C197.523 9.87713 198.251 9.55814 198.978 9.3303C199.706 9.07966 200.41 8.90878 201.093 8.81764C201.775 8.70372 202.377 8.63536 202.9 8.61258V22.0783L193.419 24.8124V54.5122H176.47Z" fill="#DD2C70"/>
<path d="M11.7602 106.212C8.88112 106.212 6.41335 105.409 4.35688 103.801C2.3004 102.193 0.98426 100.091 0.408447 97.4945C0.367318 97.206 0.305623 96.9174 0.223364 96.6289C0.182234 96.2991 0.141105 95.9694 0.0999756 95.6396C0.0999756 95.3099 0.0999756 95.042 0.0999756 94.8359V94.7122C0.0999756 94.5886 0.0999756 94.4649 0.0999756 94.3412C0.0999756 94.2176 0.0999756 94.0527 0.0999756 93.8466C0.0999756 93.5993 0.0999756 93.2902 0.0999756 92.9192V89.766C0.0999756 89.0652 0.0999756 88.6324 0.0999756 88.4676C0.0999756 88.2615 0.0999756 88.1172 0.0999756 88.0348C0.0999756 87.9523 0.0999756 87.7875 0.0999756 87.5401V87.4783C0.0999756 87.1898 0.0999756 87.0249 0.0999756 86.9837C0.0999756 86.9013 0.0999756 86.757 0.0999756 86.5509C0.0999756 86.3036 0.0999756 85.8502 0.0999756 85.1907V77.153H12.1303C12.1303 78.0598 12.3154 78.6987 12.6856 79.0697C13.0558 79.3994 13.6933 79.5643 14.5981 79.5643H19.9655C21.0349 79.5643 21.7958 79.4406 22.2482 79.1933C22.7006 78.9048 22.9268 78.4308 22.9268 77.7713C22.9268 77.3179 22.7212 76.9469 22.3099 76.6584C21.8986 76.3286 21.076 76.0401 19.8421 75.7928C18.6494 75.5454 16.8397 75.2981 14.413 75.0508C10.8759 74.6798 8.09966 74.2058 6.08431 73.6288C4.1101 73.0517 2.7117 72.2892 1.88911 71.3411C1.06652 70.3931 0.655224 69.1977 0.655224 67.7551C0.655224 63.3859 4.04841 61.2013 10.8348 61.2013H23.8523C26.7313 61.2013 28.9934 61.902 30.6386 63.3034C32.3249 64.6637 33.1681 66.5391 33.1681 68.9298H22.4333C22.4333 68.023 22.0631 67.3017 21.3228 66.7658C20.6236 66.1888 19.6159 65.9002 18.2998 65.9002H15.4618C14.3102 65.9002 13.4465 66.0857 12.8707 66.4567C12.2949 66.8277 12.007 67.2605 12.007 67.7551C12.007 68.2909 12.2332 68.7443 12.6856 69.1153C13.138 69.4863 14.0017 69.7954 15.2768 70.0427C16.5518 70.29 18.4026 70.5374 20.8292 70.7847C24.243 71.0732 26.9781 71.6503 29.0346 72.5159C31.091 73.3815 32.5923 74.6386 33.5382 76.2874C34.4842 77.9361 34.9572 80.1001 34.9572 82.7794V85.1907C34.9572 85.8502 34.9572 86.3036 34.9572 86.5509C34.9572 86.757 34.9572 86.9013 34.9572 86.9837C34.9572 87.0249 34.9572 87.1898 34.9572 87.4783V87.5401C34.9572 87.7875 34.9572 87.9523 34.9572 88.0348C34.9572 88.1172 34.9572 88.2615 34.9572 88.4676C34.9572 88.6324 34.9572 89.0652 34.9572 89.766V92.9192C34.9572 93.2902 34.9572 93.5993 34.9572 93.8466C34.9572 94.0527 34.9572 94.2176 34.9572 94.3412C34.9572 94.4649 34.9572 94.5886 34.9572 94.7122V94.8359C34.9572 95.042 34.9366 95.3099 34.8955 95.6396C34.8955 95.9694 34.875 96.2991 34.8338 96.6289C34.7927 96.9174 34.7516 97.206 34.7104 97.4945C34.4225 99.1433 33.7233 100.627 32.6128 101.946C31.5435 103.265 30.1862 104.316 28.541 105.099C26.937 105.841 25.189 106.212 23.297 106.212H11.7602Z" fill="#DD2C70"/>
<path d="M38.3504 113.879C38.3504 112.766 38.556 111.344 38.9673 109.613C39.4198 107.882 39.9339 105.903 40.5097 103.677C41.1266 101.41 41.6408 98.999 42.052 96.4434C42.5045 93.8466 42.7307 91.1674 42.7307 88.4057C42.7307 87.4165 42.6895 86.5715 42.6073 85.8708C42.525 85.1288 42.4016 84.5518 42.2371 84.1396C45.0339 84.5518 47.2138 85.1288 48.7767 85.8708C50.3808 86.5715 51.5118 87.5401 52.1699 88.7767C52.828 89.9721 53.157 91.559 53.157 93.5375C53.157 95.9694 52.8897 98.4219 52.355 100.895C51.8614 103.327 51.3473 105.862 50.8126 108.5C50.3191 111.179 50.0723 114.106 50.0723 117.28C50.0723 117.857 50.0929 118.351 50.134 118.763C50.1751 119.176 50.2162 119.588 50.2574 120C48.2832 120 46.5352 119.876 45.0134 119.629C43.5327 119.382 42.2988 118.99 41.3117 118.454C40.3246 117.96 39.5843 117.321 39.0907 116.538C38.5972 115.796 38.3504 114.909 38.3504 113.879ZM44.4581 70.7847C45.2807 70.5374 46.165 70.3519 47.111 70.2282C48.0981 70.0633 49.0646 69.9809 50.0106 69.9809C50.9977 69.9809 51.9231 70.1252 52.7868 70.4137C53.6917 70.661 54.4115 71.135 54.9461 71.8358C55.5219 72.5365 55.8099 73.5463 55.8099 74.8653C55.8099 76.0195 55.6453 77.1324 55.3163 78.2041C55.0284 79.2758 54.7199 80.3887 54.3909 81.5428C53.5683 81.7489 52.6634 81.9344 51.6763 82.0993C50.7304 82.2229 49.7844 82.2847 48.8384 82.2847C47.8924 82.2847 46.967 82.1611 46.0622 81.9138C45.1573 81.6252 44.417 81.1306 43.8412 80.4299C43.3065 79.7292 43.0392 78.7399 43.0392 77.4621C43.0392 76.308 43.2037 75.1951 43.5327 74.1234C43.8617 73.0517 44.1702 71.9388 44.4581 70.7847Z" fill="#AAC64D"/>
<path fill-rule="evenodd" clip-rule="evenodd" d="M99.7983 81.7901C99.7983 73.4227 99.9217 65.4056 100.168 57.7389H86.2256C86.2256 59.7998 86.3078 63.3447 86.4724 68.3734C86.6369 73.5669 86.7191 77.3385 86.7191 79.688C85.6086 76.8851 83.9018 74.8241 81.5985 73.5051C79.3364 72.1449 76.6013 71.4648 73.3932 71.4648C70.6375 71.4648 68.1697 72.3098 65.9899 73.9997C63.8512 75.6485 62.1854 77.8537 60.9926 80.6154C59.7999 83.3358 59.2035 86.2417 59.2035 89.3332C59.2035 92.4658 59.7999 95.3511 60.9926 97.9891C62.1854 100.586 63.8512 102.647 65.9899 104.172C68.1286 105.697 70.5347 106.46 73.2081 106.46C76.2928 106.46 78.9662 105.821 81.2284 104.543C83.4905 103.224 85.2179 101.184 86.4107 98.4219L86.2256 105.841H100.168C99.9217 98.0922 99.7983 90.0751 99.7983 81.7901ZM84.6215 94.4031C83.3465 95.516 81.7013 96.0724 79.686 96.0724C77.7118 96.0724 76.1489 95.4129 74.9972 94.0939C73.8456 92.7749 73.2698 91.0644 73.2698 88.9622C73.2698 87.0661 73.8867 85.541 75.1206 84.3869C76.3956 83.1916 77.9586 82.5939 79.8094 82.5939L92.5364 82.5099L86.5341 88.9622C86.5341 91.4353 85.8966 93.249 84.6215 94.4031Z" fill="#DD2C70"/>
<path fill-rule="evenodd" clip-rule="evenodd" d="M136.221 90.6934C135.028 91.4765 133.342 91.8681 131.162 91.8681C130.01 91.8681 128.982 91.7651 128.077 91.559C127.214 91.3529 126.473 91.0644 125.856 90.6934C125.281 90.2812 124.828 89.8072 124.499 89.2713C124.17 88.7355 124.006 88.1584 124.006 87.5401V87.4783L124.129 85.5616H124.067V85.438C124.067 84.119 124.725 83.1091 126.041 82.4084C127.358 81.6665 129.023 81.2955 131.039 81.2955C132.026 81.2955 132.931 81.3985 133.753 81.6046C134.617 81.7695 135.357 82.0374 135.974 82.4084C136.591 82.7381 137.064 83.1709 137.393 83.7068C137.763 84.2014 137.948 84.7785 137.948 85.438V85.5616L138.072 87.4783C138.031 88.8385 137.414 89.9102 136.221 90.6934ZM157.135 93.723L138.072 87.4783H157.691C157.691 83.7274 157.033 80.4917 155.716 77.7713C154.441 75.0096 152.611 72.7426 150.226 70.9702C147.881 69.1565 145.064 67.8169 141.774 66.9513C138.524 66.0857 134.946 65.6529 131.039 65.6529C127.214 65.6529 123.615 66.0857 120.242 66.9513C116.87 67.8169 113.908 69.1359 111.358 70.9083C108.849 72.6395 106.875 74.8241 105.436 77.4621C103.996 80.1001 103.276 83.1709 103.276 86.6745C103.276 90.1781 103.996 93.249 105.436 95.887C106.875 98.525 108.849 100.73 111.358 102.503C113.908 104.234 116.849 105.532 120.181 106.398C123.553 107.263 127.173 107.696 131.039 107.696C135.563 107.696 139.655 107.078 143.316 105.841C146.976 104.605 149.999 102.935 152.385 100.833C154.812 98.6898 156.395 96.3198 157.135 93.723Z" fill="#DD2C70"/>
<path d="M173.665 94.7761L183.542 84.8774L193.419 94.7761L183.542 104.675L173.665 94.7761Z" fill="#AAC64D"/>
</svg>
