<svg width="1159" height="255" viewBox="0 0 1159 255" fill="none" xmlns="http://www.w3.org/2000/svg">
<path d="M733.782 32.64L742.946 49.3959L759.702 58.56L742.946 67.7241L733.782 84.48L724.618 67.7241L707.862 58.56L724.618 49.3959L733.782 32.64Z" fill="#EAAF26"/>
<path d="M785.622 6.72L794.786 23.4759L811.542 32.64L794.786 41.8041L785.622 58.56L776.458 41.8041L759.702 32.64L776.458 23.4759L785.622 6.72Z" fill="#2640EA"/>
<path d="M837.462 32.64L846.626 49.3959L863.382 58.56L846.626 67.7241L837.462 84.48L828.298 67.7241L811.542 58.56L828.298 49.3959L837.462 32.64Z" fill="#EAAF26"/>
<path d="M889.302 6.72L898.466 23.4759L915.222 32.64L898.466 41.8041L889.302 58.56L880.138 41.8041L863.382 32.64L880.138 23.4759L889.302 6.72Z" fill="#2640EA"/>
<path d="M941.142 32.64L950.306 49.3959L967.062 58.56L950.306 67.7241L941.142 84.48L931.978 67.7241L915.222 58.56L931.978 49.3959L941.142 32.64Z" fill="#EAAF26"/>
<path d="M97.4592 215.22C89.7178 215.22 82.8749 213.492 76.9306 210.036C71.1245 206.442 66.5626 201.604 63.2448 195.521C59.927 189.439 58.2682 182.596 58.2682 174.993V102.624C58.2682 98.8915 57.3696 95.5047 55.5725 92.4634C53.7754 89.4221 51.3562 87.0029 48.3149 85.2058C45.2736 83.4087 41.9558 82.5101 38.3616 82.5101C34.7674 82.5101 31.4496 83.4087 28.4083 85.2058C25.5053 87.0029 23.1552 89.4221 21.3581 92.4634C19.6992 95.5047 18.8698 98.8915 18.8698 102.624V212.732H0V105.32C0 97.7165 0.62208 90.8736 3.93984 84.7911C7.2576 78.7085 11.8886 73.9392 17.833 70.4832C23.7773 66.889 30.6202 65.0919 38.3616 65.0919C46.2413 65.0919 53.1533 66.889 59.0976 70.4832C65.0419 73.9392 69.673 78.7085 72.9907 84.7911C76.3085 90.8736 77.9674 97.7165 77.9674 105.32V177.688C77.9674 181.421 78.8659 184.808 80.6631 187.849C82.4602 190.89 84.8102 193.309 87.7133 195.107C90.7546 196.904 94.0032 197.802 97.4592 197.802C100.915 197.802 104.095 196.904 106.998 195.107C109.901 193.309 112.182 190.89 113.841 187.849C115.638 184.808 116.536 181.421 116.536 177.688V67.5802H136.443V174.993C136.443 182.596 134.784 189.439 131.466 195.521C128.148 201.604 123.587 206.442 117.78 210.036C111.974 213.492 105.201 215.22 97.4592 215.22Z" fill="#F9F7C5"/>
<path d="M159.819 212.732V106.979H179.104V212.732H159.819ZM169.565 90.1824C166.109 90.1824 163.068 88.9382 160.442 86.4499C157.953 83.8234 156.709 80.7821 156.709 77.3261C156.709 73.8701 157.953 70.8979 160.442 68.4096C163.068 65.7831 166.109 64.4698 169.565 64.4698C173.021 64.4698 175.994 65.7831 178.482 68.4096C181.108 70.8979 182.422 73.8701 182.422 77.3261C182.422 80.7821 181.108 83.8234 178.482 86.4499C175.994 88.9382 173.021 90.1824 169.565 90.1824Z" fill="#F9F7C5"/>
<path d="M0 254.826V238.445H270.815C275.93 238.445 279.87 236.924 282.635 233.883C285.538 230.842 286.99 226.833 286.99 221.856V192.826H286.575C283.948 196.835 280.769 200.429 277.036 203.608C273.304 206.788 269.018 209.345 264.18 211.281C259.341 213.078 253.881 213.976 247.798 213.976C237.845 213.976 229.067 211.695 221.464 207.133C213.861 202.433 207.916 196.005 203.631 187.849C199.345 179.555 197.203 170.085 197.203 159.441C197.203 149.073 199.345 139.741 203.631 131.447C207.916 123.153 214.068 116.586 222.086 111.748C230.242 106.909 240.057 104.49 251.531 104.49C262.59 104.49 272.198 106.84 280.354 111.54C288.51 116.241 294.8 122.807 299.224 131.24C303.786 139.534 306.067 149.28 306.067 160.477V223.1C306.067 232.777 303.233 240.449 297.565 246.117C291.897 251.923 284.156 254.826 274.341 254.826H0ZM251.324 197.595C258.374 197.595 264.525 195.936 269.779 192.618C275.17 189.3 279.317 184.808 282.22 179.14C285.262 173.334 286.782 166.836 286.782 159.648C286.782 152.321 285.331 145.755 282.428 139.949C279.525 134.143 275.446 129.581 270.193 126.263C264.94 122.807 258.65 121.079 251.324 121.079C244.135 121.079 237.914 122.807 232.661 126.263C227.546 129.581 223.537 134.212 220.634 140.156C217.869 145.962 216.487 152.529 216.487 159.855C216.487 166.767 217.869 173.126 220.634 178.932C223.537 184.6 227.546 189.162 232.661 192.618C237.914 195.936 244.135 197.595 251.324 197.595Z" fill="#F9F7C5"/>
<path d="M329.425 202.883V61.3594H348.503V120.664C352.788 115.135 357.972 111.057 364.054 108.43C370.275 105.804 376.703 104.49 383.339 104.49C392.739 104.49 400.895 106.495 407.807 110.504C414.719 114.374 420.111 119.835 423.982 126.885C427.852 133.935 429.788 142.161 429.788 151.561V202.883L429.9 216.838C429.991 228.225 439.248 237.408 450.635 237.408H1158.42V254.688H431.313C419.846 254.709 410.711 244.897 410.711 233.43V151.768C410.711 145.409 409.259 139.949 406.356 135.387C403.453 130.687 399.582 127.092 394.744 124.604C390.044 122.116 384.998 120.872 379.606 120.872C374.215 120.872 369.169 122.116 364.469 124.604C359.769 126.954 355.898 130.41 352.857 134.972C349.954 139.534 348.503 144.995 348.503 151.354V202.883H329.425Z" fill="#F9F7C5"/>
<path d="M489.898 212.732C480.497 212.732 473.102 210.036 467.71 204.645C462.457 199.254 459.83 191.927 459.83 182.665V80.4365H478.908V181.421C478.908 185.983 480.152 189.646 482.64 192.411C485.267 195.037 488.861 196.351 493.423 196.351H565.056V212.732H489.898ZM441.583 123.36V106.979H513.216V123.36H441.583Z" fill="#F9F7C5"/>
<path d="M593.361 211.488L593.568 179.658L593.361 147.828C593.361 139.672 594.812 132.207 598.545 125.434C602.277 118.66 607.669 113.269 614.719 109.26C621.769 105.251 630.271 103.246 640.224 103.246C645.062 103.246 649.901 103.937 654.739 105.32C659.578 106.564 664.07 108.776 668.218 111.955C672.365 114.996 675.683 119.144 678.171 124.397H678.378C681.143 119.144 684.599 114.996 688.746 111.955C692.893 108.776 697.386 106.564 702.225 105.32C707.063 103.937 711.971 103.246 716.947 103.246C726.762 103.246 735.195 105.251 742.245 109.26C749.295 113.269 754.687 118.66 758.419 125.434C762.152 132.207 764.018 139.672 764.018 147.828V211.488H744.941V147.828C744.941 142.575 743.697 137.806 741.208 133.521C738.72 129.235 735.333 125.848 731.048 123.36C726.901 120.872 722.131 119.628 716.74 119.628C711.487 119.628 706.648 120.941 702.225 123.567C697.801 126.056 694.276 129.443 691.649 133.728C689.161 137.875 687.917 142.575 687.917 147.828V211.488H668.84V147.828C668.84 142.575 667.527 137.875 664.9 133.728C662.412 129.443 658.956 126.056 654.532 123.567C650.246 120.941 645.408 119.628 640.017 119.628C634.764 119.628 629.994 120.872 625.709 123.36C621.562 125.848 618.244 129.235 615.756 133.521C613.267 137.806 612.023 142.575 612.023 147.828V211.488L593.361 211.488Z" fill="#F9F7C5"/>
<path d="M831.971 213.976C821.741 213.976 812.893 211.557 805.428 206.719C797.964 201.742 792.227 195.037 788.218 186.605C784.209 178.172 782.204 168.841 782.204 158.611C782.204 148.243 784.416 138.912 788.84 130.618C793.263 122.185 799.622 115.549 807.917 110.711C816.211 105.734 826.164 103.246 837.777 103.246C848.974 103.246 858.582 105.665 866.6 110.504C874.618 115.342 880.769 121.908 885.055 130.203C889.479 138.497 891.69 147.759 891.69 157.989V211.488H872.406V189.923H871.991C869.917 193.932 867.083 197.802 863.489 201.535C860.033 205.129 855.679 208.101 850.426 210.451C845.172 212.801 839.021 213.976 831.971 213.976ZM836.947 197.595C843.859 197.595 849.942 195.936 855.195 192.618C860.586 189.162 864.734 184.462 867.637 178.518C870.678 172.435 872.198 165.661 872.198 158.197C872.198 150.87 870.747 144.303 867.844 138.497C865.079 132.691 861.07 128.129 855.817 124.812C850.564 121.356 844.412 119.628 837.362 119.628C829.897 119.628 823.469 121.356 818.077 124.812C812.824 128.268 808.746 132.968 805.843 138.912C803.078 144.718 801.696 151.354 801.696 158.819C801.696 166.007 803.078 172.573 805.843 178.518C808.608 184.324 812.617 188.955 817.87 192.411C823.123 195.867 829.482 197.595 836.947 197.595Z" fill="#F9F7C5"/>
<path d="M915.222 211.488V135.802C915.222 126.401 917.849 119.075 923.102 113.821C928.493 108.43 935.889 105.734 945.29 105.734H967.062V122.116H948.815C944.253 122.116 940.659 123.429 938.032 126.056C935.544 128.682 934.299 132.346 934.299 137.046V211.488H915.222Z" fill="#F9F7C5"/>
<path d="M1029.69 211.488C1018.77 211.488 1009.02 209.138 1000.45 204.438C991.883 199.738 985.109 193.448 980.133 185.568C975.156 177.55 972.668 168.564 972.668 158.611C972.668 148.658 975.156 139.741 980.133 131.862C985.109 123.844 991.883 117.485 1000.45 112.785C1009.02 108.085 1018.77 105.734 1029.69 105.734H1042.13V122.116H1029.07C1022.02 122.116 1015.66 123.775 1009.99 127.092C1004.46 130.272 1000.04 134.627 996.721 140.156C993.542 145.686 991.952 151.837 991.952 158.611C991.952 165.385 993.542 171.537 996.721 177.066C1000.04 182.596 1004.46 187.02 1009.99 190.337C1015.66 193.517 1022.02 195.107 1029.07 195.107H1042.13V211.488H1029.69Z" fill="#F9F7C5"/>
<path d="M1057.71 211.488V60.1152H1076.78V119.42C1081.07 113.891 1086.25 109.813 1092.34 107.186C1098.56 104.559 1104.99 103.246 1111.62 103.246C1121.02 103.246 1129.18 105.251 1136.09 109.26C1143 113.13 1148.39 118.591 1152.26 125.641C1156.13 132.691 1158.42 141.124 1158.42 150.524V211.488L1138.99 211.488V150.524C1138.99 144.165 1137.54 138.705 1134.64 134.143C1131.74 129.443 1127.86 125.848 1123.03 123.36C1118.33 120.872 1113.28 119.628 1107.89 119.628C1102.5 119.628 1097.45 120.872 1092.75 123.36C1088.05 125.71 1084.18 129.166 1081.14 133.728C1078.24 138.29 1076.78 143.75 1076.78 150.109V211.488H1057.71Z" fill="#F9F7C5"/>
<path d="M837.009 133.728L846.173 150.484L862.929 159.648L846.173 168.812L837.009 185.568L827.845 168.812L811.089 159.648L827.845 150.484L837.009 133.728Z" fill="#DB324D"/>
<path d="M339.345 206.304L347.592 221.384L362.673 229.632L347.592 237.88L339.345 252.96L331.097 237.88L316.017 229.632L331.097 221.384L339.345 206.304Z" fill="#DB324D"/>
<path d="M7.05024 26.3347H0C0 26.3347 8.1979e-05 26.0582 8.1979e-05 25.5053V20.3213C8.1979e-05 19.7683 0 19.4918 0 19.4918H7.05024V6.63552C7.05024 6.01344 7.29216 5.7024 7.776 5.7024H8.2944C10.2989 5.7024 11.8541 6.32448 12.96 7.56865C14.135 8.74368 14.7226 10.5408 14.7226 12.96V19.4918H22.7059C23.1898 19.4918 23.4317 19.7683 23.4317 20.3213V25.5053C23.4317 26.0582 23.1898 26.3347 22.7059 26.3347H14.7226V56.713C14.7226 57.3351 14.4461 57.6461 13.8931 57.6461H7.776C7.29216 57.6461 7.05024 57.3351 7.05024 56.713V26.3347Z" fill="#F9F7C5"/>
<path d="M36.2224 24.1574C37.2592 22.5677 38.7798 21.2544 40.7843 20.2176C42.7888 19.1117 45.208 18.5587 48.0419 18.5587C52.7421 18.5587 56.5091 20.0448 59.343 23.017C62.177 25.9891 63.5939 30.0326 63.5939 35.1475V56.713C63.5939 57.3351 63.3174 57.6461 62.7645 57.6461H56.6474C56.0944 57.6461 55.8179 57.3351 55.8179 56.713V36.4954C55.8179 32.9011 54.9539 30.2054 53.2259 28.4083C51.4979 26.6112 49.1824 25.7126 46.2794 25.7126C43.169 25.7126 40.7152 26.6458 38.9181 28.512C37.121 30.3091 36.2224 33.143 36.2224 37.0138V56.713C36.2224 57.3351 35.9805 57.6461 35.4966 57.6461H29.3795C28.8266 57.6461 28.5501 57.3351 28.5501 56.713V0.93312C28.5501 0.31104 28.8266 0 29.3795 0H29.8979C34.1142 0 36.2224 2.38464 36.2224 7.15392V24.1574Z" fill="#F9F7C5"/>
<path d="M77.2181 41.3683C77.6328 44.9626 78.9461 47.6237 81.1579 49.3517C83.3698 51.0106 86.2729 51.84 89.8671 51.84C92.7701 51.84 95.0856 51.4598 96.8136 50.6995C98.5416 49.9392 100.131 49.0406 101.583 48.0038C101.859 47.8656 102.101 47.6928 102.309 47.4855C102.585 47.2781 102.827 47.1744 103.034 47.1744C103.38 47.1744 103.622 47.3472 103.76 47.6928C103.968 47.9693 104.071 48.2803 104.071 48.6259C104.071 50.0774 103.484 51.5981 102.309 53.1878C101.203 54.7085 99.5093 55.9872 97.2284 57.024C95.0165 58.0608 92.2517 58.5792 88.934 58.5792C85.5471 58.5792 82.3676 57.888 79.3954 56.5056C76.4924 55.0541 74.1077 52.8768 72.2415 49.9738C70.4444 47.0016 69.5458 43.2 69.5458 38.569C69.5458 34.6982 70.3061 31.2768 71.8267 28.3046C73.3474 25.2634 75.4556 22.8787 78.1512 21.1507C80.916 19.4227 84.0956 18.5587 87.6898 18.5587C91.7679 18.5587 95.0511 19.4227 97.5394 21.1507C100.028 22.8096 101.825 24.9869 102.931 27.6826C104.106 30.3091 104.693 33.1085 104.693 36.0807C104.693 36.9792 104.659 37.7395 104.59 38.3616C104.59 38.9837 104.555 39.5712 104.486 40.1242C104.417 40.9536 103.898 41.3683 102.931 41.3683H77.2181ZM77.4255 35.4586H97.021C97.0901 33.8688 96.8482 32.3136 96.2952 30.793C95.8114 29.2723 94.8783 27.9936 93.4959 26.9568C92.1135 25.92 90.1436 25.4016 87.5861 25.4016C84.6831 25.4016 82.333 26.3002 80.5359 28.0973C78.8079 29.8253 77.7711 32.279 77.4255 35.4586Z" fill="#F9F7C5"/>
<path d="M785.622 6.72L794.786 23.4759L811.542 32.64L794.786 41.8041L785.622 58.56L776.458 41.8041L759.702 32.64L776.458 23.4759L785.622 6.72Z" fill="#2640EA"/>
<path d="M889.302 6.72L898.466 23.4759L915.222 32.64L898.466 41.8041L889.302 58.56L880.138 41.8041L863.382 32.64L880.138 23.4759L889.302 6.72Z" fill="#2640EA"/>
<path d="M733.782 32.64L742.946 49.3959L759.702 58.56L742.946 67.7241L733.782 84.48L724.618 67.7241L707.862 58.56L724.618 49.3959L733.782 32.64Z" fill="#EAAF26"/>
<path d="M785.622 6.72L794.786 23.4759L811.542 32.64L794.786 41.8041L785.622 58.56L776.458 41.8041L759.702 32.64L776.458 23.4759L785.622 6.72Z" fill="#2640EA"/>
<path d="M837.462 32.64L846.626 49.3959L863.382 58.56L846.626 67.7241L837.462 84.48L828.298 67.7241L811.542 58.56L828.298 49.3959L837.462 32.64Z" fill="#EAAF26"/>
<path d="M889.302 6.72L898.466 23.4759L915.222 32.64L898.466 41.8041L889.302 58.56L880.138 41.8041L863.382 32.64L880.138 23.4759L889.302 6.72Z" fill="#2640EA"/>
<path d="M941.142 32.64L950.306 49.3959L967.062 58.56L950.306 67.7241L941.142 84.48L931.978 67.7241L915.222 58.56L931.978 49.3959L941.142 32.64Z" fill="#EAAF26"/>
<path d="M785.622 6.72L794.786 23.4759L811.542 32.64L794.786 41.8041L785.622 58.56L776.458 41.8041L759.702 32.64L776.458 23.4759L785.622 6.72Z" fill="#2640EA"/>
<path d="M889.302 6.72L898.466 23.4759L915.222 32.64L898.466 41.8041L889.302 58.56L880.138 41.8041L863.382 32.64L880.138 23.4759L889.302 6.72Z" fill="#2640EA"/>
</svg>
