<svg width="192" height="164" viewBox="0 0 192 164" fill="none" xmlns="http://www.w3.org/2000/svg">
<g filter="url(#filter0_dddddddd_42_94)">
<path d="M112.262 99L114.229 102.594L117.825 104.56L114.229 106.525L112.262 110.119L110.296 106.525L106.7 104.56L110.296 102.594L112.262 99Z" fill="#DB324D"/>
<path d="M95.2869 30.2057L97.9133 35.0053L102.715 37.6303L97.9133 40.2553L95.2869 45.0549L92.6606 40.2553L87.8585 37.6303L92.6606 35.0053L95.2869 30.2057Z" fill="#EAAF26"/>
<path d="M110.144 22.781L112.77 27.5806L117.572 30.2057L112.77 32.8307L110.144 37.6303L107.518 32.8307L102.715 30.2057L107.518 27.5806L110.144 22.781Z" fill="#4F0069"/>
<path d="M125.001 30.2057L127.627 35.0053L132.429 37.6303L127.627 40.2553L125.001 45.0549L122.374 40.2553L117.572 37.6303L122.374 35.0053L125.001 30.2057Z" fill="#EAAF26"/>
<path d="M139.858 22.781L142.484 27.5806L147.286 30.2057L142.484 32.8307L139.858 37.6303L137.231 32.8307L132.429 30.2057L137.231 27.5806L139.858 22.781Z" fill="#4F0069"/>
<path d="M154.715 30.2057L157.341 35.0053L162.143 37.6303L157.341 40.2553L154.715 45.0549L152.088 40.2553L147.286 37.6303L152.088 35.0053L154.715 30.2057Z" fill="#EAAF26"/>
<path d="M42.9905 96.2553C40.7718 96.2553 38.8107 95.7603 37.1071 94.7704C35.4431 93.7408 34.1357 92.3549 33.1849 90.6126C32.234 88.8703 31.7586 86.9102 31.7586 84.7323V64.0027C31.7586 62.9335 31.5011 61.9634 30.9861 61.0922C30.471 60.221 29.7777 59.5281 28.9061 59.0133C28.0345 58.4985 27.0836 58.2411 26.0536 58.2411C25.0235 58.2411 24.0726 58.4985 23.201 59.0133C22.369 59.5281 21.6955 60.221 21.1805 61.0922C20.7051 61.9634 20.4674 62.9335 20.4674 64.0027V95.5425H15.0594V64.7748C15.0594 62.5969 15.2377 60.6368 16.1886 58.8945C17.1394 57.1522 18.4666 55.7861 20.1702 54.7961C21.8738 53.7665 23.8349 53.2518 26.0536 53.2518C28.3118 53.2518 30.2927 53.7665 31.9963 54.7961C33.6999 55.7861 35.0271 57.1522 35.978 58.8945C36.9288 60.6368 37.4043 62.5969 37.4043 64.7748V85.5044C37.4043 86.5736 37.6618 87.5437 38.1768 88.4149C38.6919 89.286 39.3654 89.979 40.1974 90.4938C41.069 91.0086 42 91.266 42.9905 91.266C43.9809 91.266 44.8922 91.0086 45.7241 90.4938C46.5561 89.979 47.2098 89.286 47.6853 88.4149C48.2003 87.5437 48.4578 86.5736 48.4578 85.5044V53.9645H54.1629V84.7323C54.1629 86.9102 53.6875 88.8703 52.7366 90.6126C51.7858 92.3549 50.4784 93.7408 48.8144 94.7704C47.1504 95.7603 45.2091 96.2553 42.9905 96.2553Z" fill="#FAC3CC"/>
<path d="M60.8624 95.5425V65.25H66.3892V95.5425H60.8624ZM63.6555 60.4388C62.6651 60.4388 61.7935 60.0824 61.0407 59.3697C60.3276 58.6173 59.971 57.7462 59.971 56.7562C59.971 55.7663 60.3276 54.9149 61.0407 54.2021C61.7935 53.4498 62.6651 53.0736 63.6555 53.0736C64.646 53.0736 65.4978 53.4498 66.2109 54.2021C66.9637 54.9149 67.34 55.7663 67.34 56.7562C67.34 57.7462 66.9637 58.6173 66.2109 59.3697C65.4978 60.0824 64.646 60.4388 63.6555 60.4388Z" fill="#FAC3CC"/>
<path d="M15.0594 107.6V102.908H92.673C94.1389 102.908 95.268 102.472 96.0604 101.601C96.8923 100.73 97.3083 99.5816 97.3083 98.156V89.8404H97.1895C96.4367 90.9888 95.5255 92.0183 94.4558 92.9291C93.3861 93.8398 92.1579 94.5724 90.7713 95.1268C89.3846 95.6415 87.8197 95.8989 86.0765 95.8989C83.224 95.8989 80.7082 95.2456 78.5292 93.9388C76.3502 92.5925 74.6466 90.7512 73.4184 88.4149C72.1902 86.039 71.5761 83.3265 71.5761 80.2775C71.5761 77.3076 72.1902 74.6347 73.4184 72.2589C74.6466 69.883 76.4096 68.0021 78.7075 66.6161C81.045 65.2302 83.8579 64.5372 87.1462 64.5372C90.3157 64.5372 93.0692 65.2104 95.4067 66.5567C97.7441 67.9031 99.5468 69.784 100.815 72.1995C102.122 74.5753 102.776 77.367 102.776 80.5745V98.5124C102.776 101.284 101.964 103.482 100.339 105.105C98.7148 106.769 96.4962 107.6 93.6833 107.6H15.0594ZM87.0868 91.2066C89.1073 91.2066 90.8703 90.7314 92.3758 89.781C93.921 88.8307 95.1095 87.5437 95.9415 85.9202C96.8131 84.2571 97.2489 82.396 97.2489 80.3369C97.2489 78.2382 96.8329 76.3573 96.0009 74.6941C95.169 73.031 94.0002 71.7243 92.4947 70.7739C90.9892 69.784 89.1866 69.289 87.0868 69.289C85.0266 69.289 83.2438 69.784 81.7383 70.7739C80.2724 71.7243 79.1235 73.0508 78.2915 74.7535C77.4991 76.4167 77.1029 78.2976 77.1029 80.3963C77.1029 82.3762 77.4991 84.1977 78.2915 85.8608C79.1235 87.4843 80.2724 88.7911 81.7383 89.781C83.2438 90.7314 85.0266 91.2066 87.0868 91.2066Z" fill="#FAC3CC"/>
<path d="M109.47 98.422V52.1826H114.937V69.1702C116.166 67.5863 117.651 66.4181 119.395 65.6658C121.177 64.9134 123.02 64.5372 124.921 64.5372C127.615 64.5372 129.953 65.1114 131.934 66.2598C133.915 67.3685 135.46 68.9326 136.569 70.9521C137.678 72.9716 138.233 75.3277 138.233 78.0204V107.422H132.766V78.0798C132.766 76.2583 132.35 74.6941 131.518 73.3874C130.686 72.0411 129.577 71.0115 128.19 70.2988C126.843 69.586 125.397 69.2296 123.852 69.2296C122.307 69.2296 120.86 69.586 119.513 70.2988C118.166 70.9719 117.057 71.9619 116.185 73.2686C115.353 74.5754 114.937 76.1395 114.937 77.961V98.422H109.47Z" fill="#FAC3CC"/>
<path d="M155.46 95.5425C152.766 95.5425 150.647 94.7704 149.101 93.2261C147.596 91.6817 146.843 89.583 146.843 86.93V57.6472H152.311V86.5736C152.311 87.8803 152.667 88.9297 153.38 89.7216C154.133 90.474 155.163 90.8502 156.471 90.8502H177V95.5425H155.46ZM141.614 69.9424V65.25H162.143V69.9424H141.614Z" fill="#FAC3CC"/>
<path d="M15.0594 143.06L15.1188 133.943L15.0594 124.825C15.0594 122.489 15.4754 120.351 16.5451 118.41C17.6148 116.47 19.1599 114.926 21.1805 113.777C23.201 112.629 25.6376 112.055 28.4901 112.055C29.8767 112.055 31.2634 112.253 32.65 112.649C34.0367 113.005 35.3243 113.639 36.5128 114.55C37.7014 115.421 38.6522 116.609 39.3654 118.113H39.4248C40.2172 116.609 41.2076 115.421 42.3962 114.55C43.5847 113.639 44.8723 113.005 46.259 112.649C47.6456 112.253 49.0521 112.055 50.4784 112.055C53.2913 112.055 55.708 112.629 57.7285 113.777C59.7491 114.926 61.2942 116.47 62.3639 118.41C63.4336 120.351 63.9685 122.489 63.9685 124.825V143.06H58.5011V124.825C58.5011 123.321 58.1445 121.954 57.4314 120.727C56.7183 119.499 55.7476 118.529 54.5194 117.816C53.3309 117.104 51.9641 116.747 50.4189 116.747C48.9134 116.747 47.5268 117.124 46.259 117.876C44.9912 118.589 43.9809 119.559 43.2282 120.786C42.515 121.974 42.1585 123.321 42.1585 124.825V143.06H36.6911V124.825C36.6911 123.321 36.3147 121.974 35.562 120.786C34.8489 119.559 33.8584 118.589 32.5906 117.876C31.3624 117.124 29.9758 116.747 28.4307 116.747C26.9252 116.747 25.5583 117.104 24.3302 117.816C23.1416 118.529 22.1908 119.499 21.4776 120.727C20.7645 121.954 20.4079 123.321 20.4079 124.825V143.06L15.0594 143.06Z" fill="#FAC3CC"/>
<path d="M83.4431 143.773C80.5113 143.773 77.9758 143.08 75.8364 141.694C73.697 140.269 72.0528 138.348 70.9039 135.933C69.7549 133.517 69.1805 130.844 69.1805 127.914C69.1805 124.944 69.8143 122.271 71.0821 119.895C72.3499 117.48 74.1724 115.579 76.5495 114.193C78.9266 112.768 81.7791 112.055 85.1071 112.055C88.3162 112.055 91.0697 112.748 93.3675 114.134C95.6654 115.52 97.4284 117.401 98.6566 119.777C99.9244 122.152 100.558 124.806 100.558 127.736V143.06H95.0315V136.883H94.9127C94.3184 138.031 93.5062 139.14 92.4761 140.209C91.4857 141.239 90.2377 142.09 88.7322 142.763C87.2267 143.436 85.4637 143.773 83.4431 143.773ZM84.8694 139.081C86.8503 139.081 88.5935 138.605 90.099 137.655C91.6441 136.665 92.8327 135.319 93.6647 133.616C94.5363 131.874 94.9721 129.934 94.9721 127.795C94.9721 125.697 94.5561 123.816 93.7241 122.152C92.9317 120.489 91.7828 119.183 90.2773 118.232C88.7718 117.242 87.0088 116.747 84.9882 116.747C82.8488 116.747 81.0066 117.242 79.4615 118.232C77.956 119.222 76.7872 120.569 75.9552 122.271C75.1628 123.934 74.7667 125.835 74.7667 127.973C74.7667 130.033 75.1628 131.913 75.9552 133.616C76.7476 135.279 77.8965 136.606 79.402 137.596C80.9075 138.586 82.73 139.081 84.8694 139.081Z" fill="#FAC3CC"/>
<path d="M107.302 143.06V121.38C107.302 118.688 108.055 116.589 109.561 115.084C111.106 113.54 113.225 112.768 115.919 112.768H122.159V117.46H116.93C115.622 117.46 114.592 117.836 113.839 118.589C113.126 119.341 112.77 120.39 112.77 121.737V143.06H107.302Z" fill="#FAC3CC"/>
<path d="M140.108 143.06C136.979 143.06 134.185 142.387 131.729 141.041C129.273 139.694 127.331 137.893 125.905 135.636C124.479 133.339 123.766 130.765 123.766 127.914C123.766 125.063 124.479 122.509 125.905 120.252C127.331 117.955 129.273 116.134 131.729 114.787C134.185 113.441 136.979 112.768 140.108 112.768H143.674V117.46H139.93C137.91 117.46 136.087 117.935 134.463 118.886C132.878 119.796 131.61 121.044 130.659 122.628C129.748 124.212 129.293 125.974 129.293 127.914C129.293 129.854 129.748 131.616 130.659 133.2C131.61 134.784 132.878 136.051 134.463 137.002C136.087 137.913 137.91 138.368 139.93 138.368H143.674V143.06H140.108Z" fill="#FAC3CC"/>
<path d="M148.138 143.06V99.7003H153.605V116.688C154.833 115.104 156.319 113.936 158.062 113.184C159.845 112.431 161.687 112.055 163.589 112.055C166.283 112.055 168.62 112.629 170.601 113.777C172.582 114.886 174.127 116.45 175.237 118.47C176.346 120.489 177 122.905 177 125.598V143.06L171.433 143.06V125.598C171.433 123.776 171.017 122.212 170.185 120.905C169.353 119.559 168.244 118.529 166.857 117.816C165.51 117.104 164.064 116.747 162.519 116.747C160.974 116.747 159.528 117.104 158.181 117.816C156.834 118.49 155.725 119.48 154.853 120.786C154.021 122.093 153.605 123.657 153.605 125.479V143.06H148.138Z" fill="#FAC3CC"/>
<path d="M19.0411 30.0869H15C15 30.0869 15 29.9285 15 29.6117V26.6418C15 26.3251 15 26.1667 15 26.1667H19.0411V18.8014C19.0411 18.445 19.1798 18.2668 19.4571 18.2668H19.7542C20.9032 18.2668 21.7946 18.6232 22.4285 19.336C23.102 20.0092 23.4387 21.0387 23.4387 22.4246V26.1667H28.0147C28.292 26.1667 28.4307 26.3251 28.4307 26.6418V29.6117C28.4307 29.9285 28.292 30.0869 28.0147 30.0869H23.4387V47.4902C23.4387 47.8466 23.2803 48.0248 22.9633 48.0248H19.4571C19.1798 48.0248 19.0411 47.8466 19.0411 47.4902V30.0869Z" fill="#FAC3CC"/>
<path d="M35.7621 28.8395C36.3564 27.9288 37.228 27.1764 38.3769 26.5824C39.5259 25.9489 40.9125 25.6321 42.5369 25.6321C45.2309 25.6321 47.3901 26.4835 49.0145 28.1862C50.6388 29.8889 51.451 32.2054 51.451 35.1356V47.4902C51.451 47.8466 51.2925 48.0248 50.9756 48.0248H47.4694C47.1524 48.0248 46.9939 47.8466 46.9939 47.4902V35.9078C46.9939 33.8487 46.4987 32.3044 45.5082 31.2748C44.5178 30.2453 43.1906 29.7305 41.5266 29.7305C39.7438 29.7305 38.3373 30.2651 37.3072 31.3342C36.2771 32.3638 35.7621 33.9873 35.7621 36.2048V47.4902C35.7621 47.8466 35.6234 48.0248 35.3461 48.0248H31.8399C31.5229 48.0248 31.3645 47.8466 31.3645 47.4902V15.5346C31.3645 15.1782 31.5229 15 31.8399 15H32.137C34.5537 15 35.7621 16.3661 35.7621 19.0984V28.8395Z" fill="#FAC3CC"/>
<path d="M59.2602 38.6995C59.4979 40.7586 60.2507 42.2831 61.5185 43.2731C62.7862 44.2234 64.4502 44.6986 66.5104 44.6986C68.1744 44.6986 69.5016 44.4808 70.492 44.0452C71.4825 43.6096 72.3937 43.0949 73.2257 42.5009C73.3842 42.4217 73.5229 42.3227 73.6417 42.2039C73.8002 42.0851 73.9389 42.0257 74.0577 42.0257C74.2558 42.0257 74.3945 42.1247 74.4737 42.3227C74.5926 42.4811 74.652 42.6593 74.652 42.8573C74.652 43.6888 74.3152 44.56 73.6417 45.4707C73.0078 46.3419 72.0372 47.0745 70.7298 47.6684C69.462 48.2624 67.8772 48.5594 65.9755 48.5594C64.0342 48.5594 62.2118 48.1634 60.5082 47.3715C58.8442 46.5399 57.4774 45.2926 56.4077 43.6294C55.3776 41.9267 54.8625 39.7488 54.8625 37.0957C54.8625 34.8783 55.2983 32.9181 56.17 31.2154C57.0416 29.4731 58.2499 28.107 59.795 27.117C61.3798 26.1271 63.2022 25.6321 65.2624 25.6321C67.5999 25.6321 69.4818 26.1271 70.908 27.117C72.3343 28.0674 73.3644 29.3147 73.9983 30.859C74.6718 32.3638 75.0086 33.9675 75.0086 35.6702C75.0086 36.185 74.9887 36.6206 74.9491 36.977C74.9491 37.3333 74.9293 37.6699 74.8897 37.9867C74.8501 38.4619 74.5529 38.6995 73.9983 38.6995H59.2602ZM59.3791 35.3138H70.6109C70.6505 34.4031 70.5119 33.5121 70.1949 32.641C69.9176 31.7698 69.3827 31.0372 68.5904 30.4433C67.798 29.8493 66.6689 29.5523 65.203 29.5523C63.539 29.5523 62.192 30.0671 61.1619 31.0966C60.1714 32.0866 59.5771 33.4923 59.3791 35.3138Z" fill="#FAC3CC"/>
<path d="M84.887 120.786L87.5134 125.586L92.3155 128.211L87.5134 130.836L84.887 135.636L82.2607 130.836L77.4586 128.211L82.2607 125.586L84.887 120.786Z" fill="#DB324D"/>
<path d="M15.0594 147.515H177V149H15.0594V147.515Z" fill="#FAC3CC"/>
</g>
<g filter="url(#filter1_dddddddd_42_94)">
<path d="M112.262 99L114.229 102.594L117.825 104.56L114.229 106.525L112.316 110.232L110.296 106.525L106.7 104.56L110.296 102.594L112.262 99Z" fill="#DB324D"/>
<path d="M95.2869 30.2057L97.9133 35.0053L102.715 37.6303L97.9133 40.2553L95.2869 45.0549L92.6606 40.2553L87.8585 37.6303L92.6606 35.0053L95.2869 30.2057Z" fill="#EAAF26"/>
<path d="M110.144 22.781L112.77 27.5806L117.572 30.2057L112.77 32.8307L110.144 37.6303L107.518 32.8307L102.715 30.2057L107.518 27.5806L110.144 22.781Z" fill="#4F0069"/>
<path d="M125.001 30.2057L127.627 35.0053L132.429 37.6303L127.627 40.2553L125.001 45.0549L122.374 40.2553L117.572 37.6303L122.374 35.0053L125.001 30.2057Z" fill="#EAAF26"/>
<path d="M139.858 22.781L142.484 27.5806L147.286 30.2057L142.484 32.8307L139.858 37.6303L137.231 32.8307L132.429 30.2057L137.231 27.5806L139.858 22.781Z" fill="#4F0069"/>
<path d="M154.715 30.2057L157.341 35.0053L162.143 37.6303L157.341 40.2553L154.715 45.0549L152.088 40.2553L147.286 37.6303L152.088 35.0053L154.715 30.2057Z" fill="#EAAF26"/>
<path d="M42.9905 96.2553C40.7718 96.2553 38.8107 95.7603 37.1071 94.7704C35.4431 93.7408 34.1357 92.3549 33.1849 90.6126C32.234 88.8703 31.7586 86.9102 31.7586 84.7323V64.0027C31.7586 62.9335 31.5011 61.9634 30.9861 61.0922C30.471 60.221 29.7777 59.5281 28.9061 59.0133C28.0345 58.4985 27.0836 58.2411 26.0536 58.2411C25.0235 58.2411 24.0726 58.4985 23.201 59.0133C22.369 59.5281 21.6955 60.221 21.1805 61.0922C20.7051 61.9634 20.4674 62.9335 20.4674 64.0027V95.5425H15.0594V64.7748C15.0594 62.5969 15.2377 60.6368 16.1886 58.8945C17.1394 57.1522 18.4666 55.7861 20.1702 54.7961C21.8738 53.7665 23.8349 53.2518 26.0536 53.2518C28.3118 53.2518 30.2927 53.7665 31.9963 54.7961C33.6999 55.7861 35.0271 57.1522 35.978 58.8945C36.9288 60.6368 37.4043 62.5969 37.4043 64.7748V85.5044C37.4043 86.5736 37.6618 87.5437 38.1768 88.4149C38.6919 89.286 39.3654 89.979 40.1974 90.4938C41.069 91.0086 42 91.266 42.9905 91.266C43.9809 91.266 44.8922 91.0086 45.7241 90.4938C46.5561 89.979 47.2098 89.286 47.6853 88.4149C48.2003 87.5437 48.4578 86.5736 48.4578 85.5044V53.9645H54.1629V84.7323C54.1629 86.9102 53.6875 88.8703 52.7366 90.6126C51.7858 92.3549 50.4784 93.7408 48.8144 94.7704C47.1504 95.7603 45.2091 96.2553 42.9905 96.2553Z" fill="#FAC3CC"/>
<path d="M60.8624 95.5425V65.25H66.3892V95.5425H60.8624ZM63.6555 60.4388C62.6651 60.4388 61.7935 60.0824 61.0407 59.3697C60.3276 58.6173 59.971 57.7462 59.971 56.7562C59.971 55.7663 60.3276 54.9149 61.0407 54.2021C61.7935 53.4498 62.6651 53.0736 63.6555 53.0736C64.646 53.0736 65.4978 53.4498 66.2109 54.2021C66.9637 54.9149 67.34 55.7663 67.34 56.7562C67.34 57.7462 66.9637 58.6173 66.2109 59.3697C65.4978 60.0824 64.646 60.4388 63.6555 60.4388Z" fill="#FAC3CC"/>
<path d="M15.0594 107.6V102.908H92.673C94.1389 102.908 95.268 102.472 96.0604 101.601C96.8923 100.73 97.3083 99.5816 97.3083 98.156V89.8404H97.1895C96.4367 90.9888 95.5255 92.0183 94.4558 92.9291C93.3861 93.8398 92.1579 94.5724 90.7713 95.1268C89.3846 95.6415 87.8197 95.8989 86.0765 95.8989C83.224 95.8989 80.7082 95.2456 78.5292 93.9388C76.3502 92.5925 74.6466 90.7512 73.4184 88.4149C72.1902 86.039 71.5761 83.3265 71.5761 80.2775C71.5761 77.3076 72.1902 74.6347 73.4184 72.2589C74.6466 69.883 76.4096 68.0021 78.7075 66.6161C81.045 65.2302 83.8579 64.5372 87.1462 64.5372C90.3157 64.5372 93.0692 65.2104 95.4067 66.5567C97.7441 67.9031 99.5468 69.784 100.815 72.1995C102.122 74.5753 102.776 77.367 102.776 80.5745V98.5124C102.776 101.284 101.964 103.482 100.339 105.105C98.7148 106.769 96.4962 107.6 93.6833 107.6H15.0594ZM87.0868 91.2066C89.1073 91.2066 90.8703 90.7314 92.3758 89.781C93.921 88.8307 95.1095 87.5437 95.9415 85.9202C96.8131 84.2571 97.2489 82.396 97.2489 80.3369C97.2489 78.2382 96.8329 76.3573 96.0009 74.6941C95.169 73.031 94.0002 71.7243 92.4947 70.7739C90.9892 69.784 89.1866 69.289 87.0868 69.289C85.0266 69.289 83.2438 69.784 81.7383 70.7739C80.2724 71.7243 79.1235 73.0508 78.2915 74.7535C77.4991 76.4167 77.1029 78.2976 77.1029 80.3963C77.1029 82.3762 77.4991 84.1977 78.2915 85.8608C79.1235 87.4843 80.2724 88.7911 81.7383 89.781C83.2438 90.7314 85.0266 91.2066 87.0868 91.2066Z" fill="#FAC3CC"/>
<path d="M109.47 98.422V52.1826H114.937V69.1702C116.166 67.5863 117.651 66.4181 119.395 65.6658C121.177 64.9134 123.02 64.5372 124.921 64.5372C127.615 64.5372 129.953 65.1114 131.934 66.2598C133.915 67.3685 135.46 68.9326 136.569 70.9521C137.678 72.9716 138.233 75.3277 138.233 78.0204V107.422H132.766V78.0798C132.766 76.2583 132.35 74.6941 131.518 73.3874C130.686 72.0411 129.577 71.0115 128.19 70.2988C126.843 69.586 125.397 69.2296 123.852 69.2296C122.307 69.2296 120.86 69.586 119.513 70.2988C118.166 70.9719 117.057 71.9619 116.185 73.2686C115.353 74.5754 114.937 76.1395 114.937 77.961V98.422H109.47Z" fill="#FAC3CC"/>
<path d="M155.46 95.5425C152.766 95.5425 150.647 94.7704 149.101 93.2261C147.596 91.6817 146.843 89.583 146.843 86.93V57.6472H152.311V86.5736C152.311 87.8803 152.667 88.9297 153.38 89.7216C154.133 90.474 155.163 90.8502 156.471 90.8502H177V95.5425H155.46ZM141.614 69.9424V65.25H162.143V69.9424H141.614Z" fill="#FAC3CC"/>
<path d="M15.0594 143.06L15.1188 133.943L15.0594 124.825C15.0594 122.489 15.4754 120.351 16.5451 118.41C17.6148 116.47 19.1599 114.926 21.1805 113.777C23.201 112.629 25.6376 112.055 28.4901 112.055C29.8767 112.055 31.2634 112.253 32.65 112.649C34.0367 113.005 35.3243 113.639 36.5128 114.55C37.7014 115.421 38.6522 116.609 39.3654 118.113H39.4248C40.2172 116.609 41.2076 115.421 42.3962 114.55C43.5847 113.639 44.8723 113.005 46.259 112.649C47.6456 112.253 49.0521 112.055 50.4784 112.055C53.2913 112.055 55.708 112.629 57.7285 113.777C59.7491 114.926 61.2942 116.47 62.3639 118.41C63.4336 120.351 63.9685 122.489 63.9685 124.825V143.06H58.5011V124.825C58.5011 123.321 58.1445 121.954 57.4314 120.727C56.7183 119.499 55.7476 118.529 54.5194 117.816C53.3309 117.104 51.9641 116.747 50.4189 116.747C48.9134 116.747 47.5268 117.124 46.259 117.876C44.9912 118.589 43.9809 119.559 43.2282 120.786C42.515 121.974 42.1585 123.321 42.1585 124.825V143.06H36.6911V124.825C36.6911 123.321 36.3147 121.974 35.562 120.786C34.8489 119.559 33.8584 118.589 32.5906 117.876C31.3624 117.124 29.9758 116.747 28.4307 116.747C26.9252 116.747 25.5583 117.104 24.3302 117.816C23.1416 118.529 22.1908 119.499 21.4776 120.727C20.7645 121.954 20.4079 123.321 20.4079 124.825V143.06L15.0594 143.06Z" fill="#FAC3CC"/>
<path d="M83.4431 143.773C80.5113 143.773 77.9758 143.08 75.8364 141.694C73.697 140.269 72.0528 138.348 70.9039 135.933C69.7549 133.517 69.1805 130.844 69.1805 127.914C69.1805 124.944 69.8143 122.271 71.0821 119.895C72.3499 117.48 74.1724 115.579 76.5495 114.193C78.9266 112.768 81.7791 112.055 85.1071 112.055C88.3162 112.055 91.0697 112.748 93.3675 114.134C95.6654 115.52 97.4284 117.401 98.6566 119.777C99.9244 122.152 100.558 124.806 100.558 127.736V143.06H95.0315V136.883H94.9127C94.3184 138.031 93.5062 139.14 92.4761 140.209C91.4857 141.239 90.2377 142.09 88.7322 142.763C87.2267 143.436 85.4637 143.773 83.4431 143.773ZM84.8694 139.081C86.8503 139.081 88.5935 138.605 90.099 137.655C91.6441 136.665 92.8327 135.319 93.6647 133.616C94.5363 131.874 94.9721 129.934 94.9721 127.795C94.9721 125.697 94.5561 123.816 93.7241 122.152C92.9317 120.489 91.7828 119.183 90.2773 118.232C88.7718 117.242 87.0088 116.747 84.9882 116.747C82.8488 116.747 81.0066 117.242 79.4615 118.232C77.956 119.222 76.7872 120.569 75.9552 122.271C75.1628 123.934 74.7667 125.835 74.7667 127.973C74.7667 130.033 75.1628 131.913 75.9552 133.616C76.7476 135.279 77.8965 136.606 79.402 137.596C80.9075 138.586 82.73 139.081 84.8694 139.081Z" fill="#FAC3CC"/>
<path d="M107.302 143.06V121.38C107.302 118.688 108.055 116.589 109.561 115.084C111.106 113.54 113.225 112.768 115.919 112.768H122.159V117.46H116.93C115.622 117.46 114.592 117.836 113.839 118.589C113.126 119.341 112.77 120.39 112.77 121.737V143.06H107.302Z" fill="#FAC3CC"/>
<path d="M140.108 143.06C136.979 143.06 134.185 142.387 131.729 141.041C129.273 139.694 127.331 137.893 125.905 135.636C124.479 133.339 123.766 130.765 123.766 127.914C123.766 125.063 124.479 122.509 125.905 120.252C127.331 117.955 129.273 116.134 131.729 114.787C134.185 113.441 136.979 112.768 140.108 112.768H143.674V117.46H139.93C137.91 117.46 136.087 117.935 134.463 118.886C132.878 119.796 131.61 121.044 130.659 122.628C129.748 124.212 129.293 125.974 129.293 127.914C129.293 129.854 129.748 131.616 130.659 133.2C131.61 134.784 132.878 136.051 134.463 137.002C136.087 137.913 137.91 138.368 139.93 138.368H143.674V143.06H140.108Z" fill="#FAC3CC"/>
<path d="M148.138 143.06V99.7003H153.605V116.688C154.833 115.104 156.319 113.936 158.062 113.184C159.845 112.431 161.687 112.055 163.589 112.055C166.283 112.055 168.62 112.629 170.601 113.777C172.582 114.886 174.127 116.45 175.237 118.47C176.346 120.489 177 122.905 177 125.598V143.06L171.433 143.06V125.598C171.433 123.776 171.017 122.212 170.185 120.905C169.353 119.559 168.244 118.529 166.857 117.816C165.51 117.104 164.064 116.747 162.519 116.747C160.974 116.747 159.528 117.104 158.181 117.816C156.834 118.49 155.725 119.48 154.853 120.786C154.021 122.093 153.605 123.657 153.605 125.479V143.06H148.138Z" fill="#FAC3CC"/>
<path d="M19.0411 30.0869H15C15 30.0869 15 29.9285 15 29.6117V26.6418C15 26.3251 15 26.1667 15 26.1667H19.0411V18.8014C19.0411 18.445 19.1798 18.2668 19.4571 18.2668H19.7542C20.9032 18.2668 21.7946 18.6232 22.4285 19.336C23.102 20.0092 23.4387 21.0387 23.4387 22.4246V26.1667H28.0147C28.292 26.1667 28.4307 26.3251 28.4307 26.6418V29.6117C28.4307 29.9285 28.292 30.0869 28.0147 30.0869H23.4387V47.4902C23.4387 47.8466 23.2803 48.0248 22.9633 48.0248H19.4571C19.1798 48.0248 19.0411 47.8466 19.0411 47.4902V30.0869Z" fill="#FAC3CC"/>
<path d="M35.7621 28.8395C36.3564 27.9288 37.228 27.1764 38.3769 26.5824C39.5259 25.9489 40.9125 25.6321 42.5369 25.6321C45.2309 25.6321 47.3901 26.4835 49.0145 28.1862C50.6388 29.8889 51.451 32.2054 51.451 35.1356V47.4902C51.451 47.8466 51.2925 48.0248 50.9756 48.0248H47.4694C47.1524 48.0248 46.9939 47.8466 46.9939 47.4902V35.9078C46.9939 33.8487 46.4987 32.3044 45.5082 31.2748C44.5178 30.2453 43.1906 29.7305 41.5266 29.7305C39.7438 29.7305 38.3373 30.2651 37.3072 31.3342C36.2771 32.3638 35.7621 33.9873 35.7621 36.2048V47.4902C35.7621 47.8466 35.6234 48.0248 35.3461 48.0248H31.8399C31.5229 48.0248 31.3645 47.8466 31.3645 47.4902V15.5346C31.3645 15.1782 31.5229 15 31.8399 15H32.137C34.5537 15 35.7621 16.3661 35.7621 19.0984V28.8395Z" fill="#FAC3CC"/>
<path d="M59.2602 38.6995C59.4979 40.7586 60.2507 42.2831 61.5185 43.2731C62.7862 44.2234 64.4502 44.6986 66.5104 44.6986C68.1744 44.6986 69.5016 44.4808 70.492 44.0452C71.4825 43.6096 72.3937 43.0949 73.2257 42.5009C73.3842 42.4217 73.5229 42.3227 73.6417 42.2039C73.8002 42.0851 73.9389 42.0257 74.0577 42.0257C74.2558 42.0257 74.3945 42.1247 74.4737 42.3227C74.5926 42.4811 74.652 42.6593 74.652 42.8573C74.652 43.6888 74.3152 44.56 73.6417 45.4707C73.0078 46.3419 72.0372 47.0745 70.7298 47.6684C69.462 48.2624 67.8772 48.5594 65.9755 48.5594C64.0342 48.5594 62.2118 48.1634 60.5082 47.3715C58.8442 46.5399 57.4774 45.2926 56.4077 43.6294C55.3776 41.9267 54.8625 39.7488 54.8625 37.0957C54.8625 34.8783 55.2983 32.9181 56.17 31.2154C57.0416 29.4731 58.2499 28.107 59.795 27.117C61.3798 26.1271 63.2022 25.6321 65.2624 25.6321C67.5999 25.6321 69.4818 26.1271 70.908 27.117C72.3343 28.0674 73.3644 29.3147 73.9983 30.859C74.6718 32.3638 75.0086 33.9675 75.0086 35.6702C75.0086 36.185 74.9887 36.6206 74.9491 36.977C74.9491 37.3333 74.9293 37.6699 74.8897 37.9867C74.8501 38.4619 74.5529 38.6995 73.9983 38.6995H59.2602ZM59.3791 35.3138H70.6109C70.6505 34.4031 70.5119 33.5121 70.1949 32.641C69.9176 31.7698 69.3827 31.0372 68.5904 30.4433C67.798 29.8493 66.6689 29.5523 65.203 29.5523C63.539 29.5523 62.192 30.0671 61.1619 31.0966C60.1714 32.0866 59.5771 33.4923 59.3791 35.3138Z" fill="#FAC3CC"/>
<path d="M84.887 120.786L87.5134 125.586L92.3155 128.211L87.5134 130.836L85.1071 135.856L82.2607 130.836L77.4586 128.211L82.2607 125.586L84.887 120.786Z" fill="#DB324D"/>
<path d="M15.0594 147.515H177V149H15.0594V147.515Z" fill="#FAC3CC"/>
</g>
<path d="M112.262 99L114.229 102.594L117.825 104.56L114.229 106.525L112.316 110.232L110.296 106.525L106.7 104.56L110.296 102.594L112.262 99Z" fill="#FAC3CC"/>
<path d="M95.2869 30.2057L97.9133 35.0053L102.715 37.6303L97.9133 40.2553L95.2869 45.0549L92.6606 40.2553L87.8585 37.6303L92.6606 35.0053L95.2869 30.2057Z" fill="#FAC3CC"/>
<path d="M110.144 22.781L112.77 27.5807L117.572 30.2057L112.77 32.8307L110.144 37.6303L107.518 32.8307L102.715 30.2057L107.518 27.5807L110.144 22.781Z" fill="#FAC3CC"/>
<path d="M125.001 30.2057L127.627 35.0053L132.429 37.6303L127.627 40.2553L125.001 45.0549L122.374 40.2553L117.572 37.6303L122.374 35.0053L125.001 30.2057Z" fill="#FAC3CC"/>
<path d="M139.858 22.781L142.484 27.5807L147.286 30.2057L142.484 32.8307L139.858 37.6303L137.231 32.8307L132.429 30.2057L137.231 27.5807L139.858 22.781Z" fill="#FAC3CC"/>
<path d="M154.715 30.2057L157.341 35.0053L162.143 37.6303L157.341 40.2553L154.715 45.0549L152.088 40.2553L147.286 37.6303L152.088 35.0053L154.715 30.2057Z" fill="#FAC3CC"/>
<path d="M42.9905 96.2553C40.7718 96.2553 38.8107 95.7603 37.1071 94.7704C35.4431 93.7408 34.1357 92.3549 33.1849 90.6126C32.234 88.8703 31.7586 86.9102 31.7586 84.7323V64.0027C31.7586 62.9335 31.5011 61.9634 30.9861 61.0922C30.471 60.221 29.7777 59.5281 28.9061 59.0133C28.0345 58.4985 27.0836 58.2411 26.0536 58.2411C25.0235 58.2411 24.0726 58.4985 23.201 59.0133C22.369 59.5281 21.6955 60.221 21.1805 61.0922C20.7051 61.9634 20.4674 62.9335 20.4674 64.0027V95.5425H15.0594V64.7748C15.0594 62.5969 15.2377 60.6368 16.1886 58.8945C17.1394 57.1522 18.4666 55.7861 20.1702 54.7961C21.8738 53.7665 23.8349 53.2518 26.0536 53.2518C28.3118 53.2518 30.2927 53.7665 31.9963 54.7961C33.6999 55.7861 35.0271 57.1522 35.978 58.8945C36.9288 60.6368 37.4043 62.5969 37.4043 64.7748V85.5044C37.4043 86.5736 37.6618 87.5437 38.1768 88.4149C38.6919 89.286 39.3654 89.979 40.1974 90.4938C41.069 91.0086 42 91.266 42.9905 91.266C43.9809 91.266 44.8922 91.0086 45.7241 90.4938C46.5561 89.979 47.2098 89.286 47.6853 88.4149C48.2003 87.5437 48.4578 86.5736 48.4578 85.5044V53.9645H54.1629V84.7323C54.1629 86.9102 53.6875 88.8703 52.7366 90.6126C51.7858 92.3549 50.4784 93.7408 48.8144 94.7704C47.1504 95.7603 45.2091 96.2553 42.9905 96.2553Z" fill="#FAC3CC"/>
<path d="M60.8624 95.5425V65.25H66.3892V95.5425H60.8624ZM63.6555 60.4388C62.6651 60.4388 61.7935 60.0824 61.0407 59.3697C60.3276 58.6173 59.971 57.7462 59.971 56.7562C59.971 55.7663 60.3276 54.9149 61.0407 54.2021C61.7935 53.4498 62.6651 53.0736 63.6555 53.0736C64.646 53.0736 65.4978 53.4498 66.2109 54.2021C66.9637 54.9149 67.3401 55.7663 67.3401 56.7562C67.3401 57.7462 66.9637 58.6173 66.2109 59.3697C65.4978 60.0824 64.646 60.4388 63.6555 60.4388Z" fill="#FAC3CC"/>
<path d="M15.0594 107.6V102.908H92.673C94.1389 102.908 95.268 102.472 96.0604 101.601C96.8923 100.73 97.3083 99.5816 97.3083 98.156V89.8404H97.1895C96.4367 90.9888 95.5255 92.0183 94.4558 92.9291C93.3861 93.8398 92.158 94.5724 90.7713 95.1268C89.3847 95.6415 87.8197 95.8989 86.0765 95.8989C83.224 95.8989 80.7082 95.2456 78.5292 93.9388C76.3502 92.5925 74.6466 90.7512 73.4184 88.4149C72.1902 86.039 71.5761 83.3265 71.5761 80.2775C71.5761 77.3076 72.1902 74.6348 73.4184 72.2589C74.6466 69.883 76.4096 68.0021 78.7075 66.6161C81.045 65.2302 83.8579 64.5372 87.1462 64.5372C90.3157 64.5372 93.0692 65.2104 95.4067 66.5567C97.7441 67.9031 99.5468 69.784 100.815 72.1995C102.122 74.5754 102.776 77.367 102.776 80.5745V98.5124C102.776 101.284 101.964 103.482 100.339 105.105C98.7148 106.769 96.4962 107.6 93.6833 107.6H15.0594ZM87.0868 91.2066C89.1073 91.2066 90.8703 90.7314 92.3758 89.781C93.921 88.8307 95.1095 87.5437 95.9415 85.9202C96.8131 84.2571 97.2489 82.396 97.2489 80.3369C97.2489 78.2382 96.8329 76.3573 96.0009 74.6941C95.169 73.031 94.0002 71.7243 92.4947 70.7739C90.9892 69.784 89.1866 69.289 87.0868 69.289C85.0266 69.289 83.2438 69.784 81.7383 70.7739C80.2724 71.7243 79.1235 73.0508 78.2915 74.7535C77.4991 76.4167 77.1029 78.2976 77.1029 80.3963C77.1029 82.3762 77.4991 84.1977 78.2915 85.8608C79.1235 87.4843 80.2724 88.7911 81.7383 89.781C83.2438 90.7314 85.0266 91.2066 87.0868 91.2066Z" fill="#FAC3CC"/>
<path d="M109.47 98.422V52.1826H114.937V69.1702C116.166 67.5863 117.651 66.4181 119.395 65.6658C121.177 64.9134 123.02 64.5372 124.921 64.5372C127.615 64.5372 129.953 65.1114 131.934 66.2598C133.915 67.3685 135.46 68.9326 136.569 70.9521C137.678 72.9716 138.233 75.3277 138.233 78.0204V107.422H132.766V78.0798C132.766 76.2583 132.35 74.6941 131.518 73.3874C130.686 72.0411 129.577 71.0115 128.19 70.2988C126.843 69.586 125.397 69.2296 123.852 69.2296C122.307 69.2296 120.86 69.586 119.513 70.2988C118.166 70.9719 117.057 71.9619 116.185 73.2686C115.353 74.5754 114.937 76.1395 114.937 77.961V98.422H109.47Z" fill="#FAC3CC"/>
<path d="M155.46 95.5425C152.766 95.5425 150.647 94.7704 149.101 93.2261C147.596 91.6817 146.843 89.583 146.843 86.93V57.6472H152.311V86.5736C152.311 87.8803 152.667 88.9297 153.38 89.7216C154.133 90.474 155.163 90.8502 156.471 90.8502H177V95.5425H155.46ZM141.614 69.9424V65.25H162.143V69.9424H141.614Z" fill="#FAC3CC"/>
<path d="M15.0594 143.06L15.1188 133.943L15.0594 124.825C15.0594 122.489 15.4754 120.351 16.5451 118.41C17.6148 116.47 19.1599 114.926 21.1805 113.777C23.201 112.629 25.6376 112.055 28.4901 112.055C29.8767 112.055 31.2634 112.253 32.65 112.649C34.0367 113.005 35.3243 113.639 36.5128 114.55C37.7014 115.421 38.6522 116.609 39.3654 118.113H39.4248C40.2172 116.609 41.2076 115.421 42.3962 114.55C43.5847 113.639 44.8723 113.005 46.259 112.649C47.6456 112.253 49.0521 112.055 50.4784 112.055C53.2913 112.055 55.708 112.629 57.7285 113.777C59.7491 114.926 61.2942 116.47 62.3639 118.41C63.4336 120.351 63.9685 122.489 63.9685 124.825V143.06H58.5011V124.825C58.5011 123.321 58.1445 121.954 57.4314 120.727C56.7183 119.499 55.7476 118.529 54.5194 117.816C53.3309 117.104 51.9641 116.747 50.4189 116.747C48.9134 116.747 47.5268 117.124 46.259 117.876C44.9912 118.589 43.9809 119.559 43.2282 120.786C42.515 121.974 42.1585 123.321 42.1585 124.825V143.06H36.6911V124.825C36.6911 123.321 36.3148 121.974 35.562 120.786C34.8489 119.559 33.8584 118.589 32.5906 117.876C31.3624 117.124 29.9758 116.747 28.4307 116.747C26.9252 116.747 25.5583 117.104 24.3302 117.816C23.1416 118.529 22.1908 119.499 21.4776 120.727C20.7645 121.954 20.4079 123.321 20.4079 124.825V143.06L15.0594 143.06Z" fill="#FAC3CC"/>
<path d="M83.4431 143.773C80.5113 143.773 77.9758 143.08 75.8364 141.694C73.697 140.269 72.0528 138.348 70.9039 135.933C69.7549 133.517 69.1805 130.844 69.1805 127.914C69.1805 124.944 69.8144 122.271 71.0821 119.895C72.3499 117.48 74.1724 115.579 76.5495 114.193C78.9266 112.768 81.7791 112.055 85.1071 112.055C88.3162 112.055 91.0697 112.748 93.3676 114.134C95.6654 115.52 97.4284 117.401 98.6566 119.777C99.9244 122.152 100.558 124.806 100.558 127.736V143.06H95.0315V136.883H94.9127C94.3184 138.031 93.5062 139.14 92.4761 140.209C91.4857 141.239 90.2377 142.09 88.7322 142.763C87.2267 143.436 85.4637 143.773 83.4431 143.773ZM84.8694 139.081C86.8503 139.081 88.5935 138.605 90.099 137.655C91.6441 136.665 92.8327 135.319 93.6647 133.616C94.5363 131.874 94.9721 129.934 94.9721 127.795C94.9721 125.697 94.5561 123.816 93.7241 122.152C92.9317 120.489 91.7828 119.183 90.2773 118.232C88.7718 117.242 87.0088 116.747 84.9882 116.747C82.8488 116.747 81.0066 117.242 79.4615 118.232C77.956 119.222 76.7872 120.569 75.9552 122.271C75.1628 123.934 74.7667 125.835 74.7667 127.973C74.7667 130.033 75.1628 131.913 75.9552 133.616C76.7476 135.279 77.8965 136.606 79.402 137.596C80.9075 138.586 82.73 139.081 84.8694 139.081Z" fill="#FAC3CC"/>
<path d="M107.302 143.06V121.38C107.302 118.688 108.055 116.589 109.561 115.084C111.106 113.54 113.225 112.768 115.919 112.768H122.159V117.46H116.93C115.622 117.46 114.592 117.836 113.839 118.589C113.126 119.341 112.77 120.39 112.77 121.737V143.06H107.302Z" fill="#FAC3CC"/>
<path d="M140.108 143.06C136.979 143.06 134.185 142.387 131.729 141.041C129.273 139.694 127.331 137.893 125.905 135.636C124.479 133.339 123.766 130.765 123.766 127.914C123.766 125.063 124.479 122.509 125.905 120.252C127.331 117.955 129.273 116.134 131.729 114.787C134.185 113.441 136.979 112.768 140.108 112.768H143.674V117.46H139.93C137.91 117.46 136.087 117.935 134.463 118.886C132.878 119.796 131.61 121.044 130.659 122.628C129.748 124.212 129.293 125.974 129.293 127.914C129.293 129.854 129.748 131.616 130.659 133.2C131.61 134.784 132.878 136.051 134.463 137.002C136.087 137.913 137.91 138.368 139.93 138.368H143.674V143.06H140.108Z" fill="#FAC3CC"/>
<path d="M148.138 143.06V99.7003H153.605V116.688C154.833 115.104 156.319 113.936 158.062 113.184C159.845 112.431 161.687 112.055 163.589 112.055C166.283 112.055 168.62 112.629 170.601 113.777C172.582 114.886 174.127 116.45 175.237 118.47C176.346 120.489 177 122.905 177 125.598V143.06L171.433 143.06V125.598C171.433 123.776 171.017 122.212 170.185 120.905C169.353 119.559 168.244 118.529 166.857 117.816C165.51 117.104 164.064 116.747 162.519 116.747C160.974 116.747 159.528 117.104 158.181 117.816C156.834 118.49 155.725 119.48 154.853 120.786C154.021 122.093 153.605 123.657 153.605 125.479V143.06H148.138Z" fill="#FAC3CC"/>
<path d="M19.0411 30.0869H15C15 30.0869 15 29.9285 15 29.6117V26.6418C15 26.3251 15 26.1667 15 26.1667H19.0411V18.8014C19.0411 18.445 19.1798 18.2668 19.4571 18.2668H19.7542C20.9032 18.2668 21.7946 18.6232 22.4285 19.336C23.102 20.0092 23.4387 21.0387 23.4387 22.4246V26.1667H28.0147C28.292 26.1667 28.4307 26.3251 28.4307 26.6418V29.6117C28.4307 29.9285 28.292 30.0869 28.0147 30.0869H23.4387V47.4902C23.4387 47.8466 23.2803 48.0248 22.9633 48.0248H19.4571C19.1798 48.0248 19.0411 47.8466 19.0411 47.4902V30.0869Z" fill="#FAC3CC"/>
<path d="M35.7621 28.8395C36.3564 27.9288 37.228 27.1764 38.3769 26.5824C39.5259 25.9489 40.9125 25.6321 42.5369 25.6321C45.2309 25.6321 47.3901 26.4835 49.0145 28.1862C50.6388 29.8889 51.451 32.2054 51.451 35.1356V47.4902C51.451 47.8466 51.2925 48.0248 50.9756 48.0248H47.4694C47.1524 48.0248 46.9939 47.8466 46.9939 47.4902V35.9078C46.9939 33.8487 46.4987 32.3044 45.5083 31.2748C44.5178 30.2453 43.1906 29.7305 41.5266 29.7305C39.7438 29.7305 38.3373 30.2651 37.3072 31.3342C36.2771 32.3638 35.7621 33.9873 35.7621 36.2048V47.4902C35.7621 47.8466 35.6234 48.0248 35.3461 48.0248H31.8399C31.5229 48.0248 31.3645 47.8466 31.3645 47.4902V15.5346C31.3645 15.1782 31.5229 15 31.8399 15H32.137C34.5537 15 35.7621 16.3661 35.7621 19.0984V28.8395Z" fill="#FAC3CC"/>
<path d="M59.2602 38.6995C59.4979 40.7586 60.2507 42.2831 61.5185 43.2731C62.7862 44.2234 64.4502 44.6986 66.5104 44.6986C68.1744 44.6986 69.5016 44.4808 70.492 44.0452C71.4825 43.6096 72.3937 43.0949 73.2257 42.5009C73.3842 42.4217 73.5229 42.3227 73.6417 42.2039C73.8002 42.0851 73.9389 42.0257 74.0577 42.0257C74.2558 42.0257 74.3945 42.1247 74.4737 42.3227C74.5926 42.4811 74.652 42.6593 74.652 42.8573C74.652 43.6888 74.3152 44.56 73.6417 45.4707C73.0078 46.3419 72.0372 47.0745 70.7298 47.6684C69.462 48.2624 67.8772 48.5594 65.9755 48.5594C64.0342 48.5594 62.2118 48.1634 60.5082 47.3715C58.8442 46.5399 57.4774 45.2926 56.4077 43.6294C55.3776 41.9267 54.8625 39.7488 54.8625 37.0957C54.8625 34.8783 55.2983 32.9181 56.17 31.2154C57.0416 29.4731 58.2499 28.107 59.7951 27.117C61.3798 26.1271 63.2022 25.6321 65.2624 25.6321C67.5999 25.6321 69.4818 26.1271 70.908 27.117C72.3343 28.0674 73.3644 29.3147 73.9983 30.859C74.6718 32.3638 75.0086 33.9675 75.0086 35.6702C75.0086 36.185 74.9887 36.6206 74.9491 36.977C74.9491 37.3333 74.9293 37.6699 74.8897 37.9867C74.8501 38.4619 74.5529 38.6995 73.9983 38.6995H59.2602ZM59.3791 35.3138H70.6109C70.6505 34.4031 70.5119 33.5121 70.1949 32.641C69.9176 31.7698 69.3827 31.0372 68.5904 30.4433C67.798 29.8493 66.6689 29.5523 65.203 29.5523C63.539 29.5523 62.192 30.0671 61.1619 31.0966C60.1714 32.0866 59.5772 33.4923 59.3791 35.3138Z" fill="#FAC3CC"/>
<path d="M84.887 120.786L87.5134 125.586L92.3155 128.211L87.5134 130.836L85.1071 135.933L82.2607 130.836L77.4586 128.211L82.2607 125.586L84.887 120.786Z" fill="#FAC3CC"/>
<path d="M15.0594 147.515H177V149H15.0594V147.515Z" fill="#FAC3CC"/>
<defs>
<filter id="filter0_dddddddd_42_94" x="15" y="15" width="162" height="134" filterUnits="userSpaceOnUse" color-interpolation-filters="sRGB">
<feFlood flood-opacity="0" result="BackgroundImageFix"/>
<feColorMatrix in="SourceAlpha" type="matrix" values="0 0 0 0 0 0 0 0 0 0 0 0 0 0 0 0 0 0 127 0" result="hardAlpha"/>
<feOffset/>
<feComposite in2="hardAlpha" operator="out"/>
<feColorMatrix type="matrix" values="0 0 0 0 0.960784 0 0 0 0 0.960784 0 0 0 0 0.960784 0 0 0 1 0"/>
<feBlend mode="normal" in2="BackgroundImageFix" result="effect1_dropShadow_42_94"/>
<feColorMatrix in="SourceAlpha" type="matrix" values="0 0 0 0 0 0 0 0 0 0 0 0 0 0 0 0 0 0 127 0" result="hardAlpha"/>
<feOffset/>
<feComposite in2="hardAlpha" operator="out"/>
<feColorMatrix type="matrix" values="0 0 0 0 0.960784 0 0 0 0 0.960784 0 0 0 0 0.960784 0 0 0 1 0"/>
<feBlend mode="normal" in2="effect1_dropShadow_42_94" result="effect2_dropShadow_42_94"/>
<feColorMatrix in="SourceAlpha" type="matrix" values="0 0 0 0 0 0 0 0 0 0 0 0 0 0 0 0 0 0 127 0" result="hardAlpha"/>
<feOffset/>
<feComposite in2="hardAlpha" operator="out"/>
<feColorMatrix type="matrix" values="0 0 0 0 0.960784 0 0 0 0 0.960784 0 0 0 0 0.960784 0 0 0 1 0"/>
<feBlend mode="normal" in2="effect2_dropShadow_42_94" result="effect3_dropShadow_42_94"/>
<feColorMatrix in="SourceAlpha" type="matrix" values="0 0 0 0 0 0 0 0 0 0 0 0 0 0 0 0 0 0 127 0" result="hardAlpha"/>
<feOffset/>
<feComposite in2="hardAlpha" operator="out"/>
<feColorMatrix type="matrix" values="0 0 0 0 0.960784 0 0 0 0 0.960784 0 0 0 0 0.960784 0 0 0 1 0"/>
<feBlend mode="normal" in2="effect3_dropShadow_42_94" result="effect4_dropShadow_42_94"/>
<feColorMatrix in="SourceAlpha" type="matrix" values="0 0 0 0 0 0 0 0 0 0 0 0 0 0 0 0 0 0 127 0" result="hardAlpha"/>
<feOffset/>
<feComposite in2="hardAlpha" operator="out"/>
<feColorMatrix type="matrix" values="0 0 0 0 0.960784 0 0 0 0 0.960784 0 0 0 0 0.960784 0 0 0 1 0"/>
<feBlend mode="normal" in2="effect4_dropShadow_42_94" result="effect5_dropShadow_42_94"/>
<feColorMatrix in="SourceAlpha" type="matrix" values="0 0 0 0 0 0 0 0 0 0 0 0 0 0 0 0 0 0 127 0" result="hardAlpha"/>
<feOffset/>
<feComposite in2="hardAlpha" operator="out"/>
<feColorMatrix type="matrix" values="0 0 0 0 0.960784 0 0 0 0 0.960784 0 0 0 0 0.960784 0 0 0 1 0"/>
<feBlend mode="normal" in2="effect5_dropShadow_42_94" result="effect6_dropShadow_42_94"/>
<feColorMatrix in="SourceAlpha" type="matrix" values="0 0 0 0 0 0 0 0 0 0 0 0 0 0 0 0 0 0 127 0" result="hardAlpha"/>
<feOffset/>
<feComposite in2="hardAlpha" operator="out"/>
<feColorMatrix type="matrix" values="0 0 0 0 0.960784 0 0 0 0 0.960784 0 0 0 0 0.960784 0 0 0 1 0"/>
<feBlend mode="normal" in2="effect6_dropShadow_42_94" result="effect7_dropShadow_42_94"/>
<feColorMatrix in="SourceAlpha" type="matrix" values="0 0 0 0 0 0 0 0 0 0 0 0 0 0 0 0 0 0 127 0" result="hardAlpha"/>
<feOffset/>
<feComposite in2="hardAlpha" operator="out"/>
<feColorMatrix type="matrix" values="0 0 0 0 0.960784 0 0 0 0 0.960784 0 0 0 0 0.960784 0 0 0 1 0"/>
<feBlend mode="normal" in2="effect7_dropShadow_42_94" result="effect8_dropShadow_42_94"/>
<feBlend mode="normal" in="SourceGraphic" in2="effect8_dropShadow_42_94" result="shape"/>
</filter>
<filter id="filter1_dddddddd_42_94" x="0.719999" y="0.719999" width="190.56" height="162.56" filterUnits="userSpaceOnUse" color-interpolation-filters="sRGB">
<feFlood flood-opacity="0" result="BackgroundImageFix"/>
<feColorMatrix in="SourceAlpha" type="matrix" values="0 0 0 0 0 0 0 0 0 0 0 0 0 0 0 0 0 0 127 0" result="hardAlpha"/>
<feOffset/>
<feGaussianBlur stdDeviation="7.14"/>
<feComposite in2="hardAlpha" operator="out"/>
<feColorMatrix type="matrix" values="0 0 0 0 0.760784 0 0 0 0 0.278431 0 0 0 0 0.4 0 0 0 0.36 0"/>
<feBlend mode="normal" in2="BackgroundImageFix" result="effect1_dropShadow_42_94"/>
<feColorMatrix in="SourceAlpha" type="matrix" values="0 0 0 0 0 0 0 0 0 0 0 0 0 0 0 0 0 0 127 0" result="hardAlpha"/>
<feOffset/>
<feGaussianBlur stdDeviation="7.14"/>
<feComposite in2="hardAlpha" operator="out"/>
<feColorMatrix type="matrix" values="0 0 0 0 0.760784 0 0 0 0 0.278431 0 0 0 0 0.4 0 0 0 0.36 0"/>
<feBlend mode="normal" in2="effect1_dropShadow_42_94" result="effect2_dropShadow_42_94"/>
<feColorMatrix in="SourceAlpha" type="matrix" values="0 0 0 0 0 0 0 0 0 0 0 0 0 0 0 0 0 0 127 0" result="hardAlpha"/>
<feOffset/>
<feGaussianBlur stdDeviation="7.14"/>
<feComposite in2="hardAlpha" operator="out"/>
<feColorMatrix type="matrix" values="0 0 0 0 0.760784 0 0 0 0 0.278431 0 0 0 0 0.4 0 0 0 0.36 0"/>
<feBlend mode="normal" in2="effect2_dropShadow_42_94" result="effect3_dropShadow_42_94"/>
<feColorMatrix in="SourceAlpha" type="matrix" values="0 0 0 0 0 0 0 0 0 0 0 0 0 0 0 0 0 0 127 0" result="hardAlpha"/>
<feOffset/>
<feGaussianBlur stdDeviation="7.14"/>
<feComposite in2="hardAlpha" operator="out"/>
<feColorMatrix type="matrix" values="0 0 0 0 0.760784 0 0 0 0 0.278431 0 0 0 0 0.4 0 0 0 0.36 0"/>
<feBlend mode="normal" in2="effect3_dropShadow_42_94" result="effect4_dropShadow_42_94"/>
<feColorMatrix in="SourceAlpha" type="matrix" values="0 0 0 0 0 0 0 0 0 0 0 0 0 0 0 0 0 0 127 0" result="hardAlpha"/>
<feOffset/>
<feGaussianBlur stdDeviation="7.14"/>
<feComposite in2="hardAlpha" operator="out"/>
<feColorMatrix type="matrix" values="0 0 0 0 0.760784 0 0 0 0 0.278431 0 0 0 0 0.4 0 0 0 0.36 0"/>
<feBlend mode="normal" in2="effect4_dropShadow_42_94" result="effect5_dropShadow_42_94"/>
<feColorMatrix in="SourceAlpha" type="matrix" values="0 0 0 0 0 0 0 0 0 0 0 0 0 0 0 0 0 0 127 0" result="hardAlpha"/>
<feOffset/>
<feGaussianBlur stdDeviation="7.14"/>
<feComposite in2="hardAlpha" operator="out"/>
<feColorMatrix type="matrix" values="0 0 0 0 0.760784 0 0 0 0 0.278431 0 0 0 0 0.4 0 0 0 0.36 0"/>
<feBlend mode="normal" in2="effect5_dropShadow_42_94" result="effect6_dropShadow_42_94"/>
<feColorMatrix in="SourceAlpha" type="matrix" values="0 0 0 0 0 0 0 0 0 0 0 0 0 0 0 0 0 0 127 0" result="hardAlpha"/>
<feOffset/>
<feGaussianBlur stdDeviation="7.14"/>
<feComposite in2="hardAlpha" operator="out"/>
<feColorMatrix type="matrix" values="0 0 0 0 0.760784 0 0 0 0 0.278431 0 0 0 0 0.4 0 0 0 0.36 0"/>
<feBlend mode="normal" in2="effect6_dropShadow_42_94" result="effect7_dropShadow_42_94"/>
<feColorMatrix in="SourceAlpha" type="matrix" values="0 0 0 0 0 0 0 0 0 0 0 0 0 0 0 0 0 0 127 0" result="hardAlpha"/>
<feOffset/>
<feGaussianBlur stdDeviation="7.14"/>
<feComposite in2="hardAlpha" operator="out"/>
<feColorMatrix type="matrix" values="0 0 0 0 0.760784 0 0 0 0 0.278431 0 0 0 0 0.4 0 0 0 0.36 0"/>
<feBlend mode="normal" in2="effect7_dropShadow_42_94" result="effect8_dropShadow_42_94"/>
<feBlend mode="normal" in="SourceGraphic" in2="effect8_dropShadow_42_94" result="shape"/>
</filter>
</defs>
</svg>
