<svg width="241" height="80" viewBox="0 0 241 80" fill="none" xmlns="http://www.w3.org/2000/svg">
<g filter="url(#filter0_dddddddd_184_80)">
<path d="M150.588 28.5L152.355 31.7322L155.588 33.5L152.355 35.2678L150.588 38.5L148.82 35.2678L145.588 33.5L148.82 31.7322L150.588 28.5Z" fill="white"/>
<path d="M160.588 23.5L162.355 26.7322L165.588 28.5L162.355 30.2678L160.588 33.5L158.82 30.2678L155.588 28.5L158.82 26.7322L160.588 23.5Z" fill="white"/>
<path d="M170.588 28.5L172.355 31.7322L175.588 33.5L172.355 35.2678L170.588 38.5L168.82 35.2678L165.588 33.5L168.82 31.7322L170.588 28.5Z" fill="white"/>
<path d="M180.588 23.5L182.355 26.7322L185.588 28.5L182.355 30.2678L180.588 33.5L178.82 30.2678L175.588 28.5L178.82 26.7322L180.588 23.5Z" fill="white"/>
<path d="M190.588 28.5L192.355 31.7322L195.588 33.5L192.355 35.2678L190.588 38.5L188.82 35.2678L185.588 33.5L188.82 31.7322L190.588 28.5Z" fill="white"/>
<path d="M27.84 63.72C26.3467 63.72 25.0267 63.3867 23.88 62.72C22.76 62.0267 21.88 61.0933 21.24 59.92C20.6 58.7467 20.28 57.4267 20.28 55.96V42C20.28 41.28 20.1067 40.6267 19.76 40.04C19.4133 39.4533 18.9467 38.9867 18.36 38.64C17.7733 38.2933 17.1333 38.12 16.44 38.12C15.7467 38.12 15.1067 38.2933 14.52 38.64C13.96 38.9867 13.5067 39.4533 13.16 40.04C12.84 40.6267 12.68 41.28 12.68 42V63.24H9.04V42.52C9.04 41.0533 9.16 39.7333 9.8 38.56C10.44 37.3867 11.3333 36.4667 12.48 35.8C13.6267 35.1067 14.9467 34.76 16.44 34.76C17.96 34.76 19.2933 35.1067 20.44 35.8C21.5867 36.4667 22.48 37.3867 23.12 38.56C23.76 39.7333 24.08 41.0533 24.08 42.52V56.48C24.08 57.2 24.2533 57.8533 24.6 58.44C24.9467 59.0267 25.4 59.4933 25.96 59.84C26.5467 60.1867 27.1733 60.36 27.84 60.36C28.5067 60.36 29.12 60.1867 29.68 59.84C30.24 59.4933 30.68 59.0267 31 58.44C31.3467 57.8533 31.52 57.2 31.52 56.48V35.24H35.36V55.96C35.36 57.4267 35.04 58.7467 34.4 59.92C33.76 61.0933 32.88 62.0267 31.76 62.72C30.64 63.3867 29.3333 63.72 27.84 63.72Z" fill="white"/>
<path d="M39.8694 63.24V42.84H43.5894V63.24H39.8694ZM41.7494 39.6C41.0827 39.6 40.496 39.36 39.9894 38.88C39.5094 38.3733 39.2694 37.7867 39.2694 37.12C39.2694 36.4533 39.5094 35.88 39.9894 35.4C40.496 34.8933 41.0827 34.64 41.7494 34.64C42.416 34.64 42.9894 34.8933 43.4694 35.4C43.976 35.88 44.2294 36.4533 44.2294 37.12C44.2294 37.7867 43.976 38.3733 43.4694 38.88C42.9894 39.36 42.416 39.6 41.7494 39.6Z" fill="white"/>
<path d="M9.04 71.36V68.2H61.2806C62.2673 68.2 63.0273 67.9067 63.5606 67.32C64.1206 66.7333 64.4006 65.96 64.4006 65V59.4H64.3206C63.814 60.1733 63.2006 60.8667 62.4806 61.48C61.7606 62.0933 60.934 62.5867 60.0006 62.96C59.0673 63.3067 58.014 63.48 56.8406 63.48C54.9206 63.48 53.2273 63.04 51.7606 62.16C50.294 61.2533 49.1473 60.0133 48.3206 58.44C47.494 56.84 47.0806 55.0133 47.0806 52.96C47.0806 50.96 47.494 49.16 48.3206 47.56C49.1473 45.96 50.334 44.6933 51.8806 43.76C53.454 42.8267 55.3473 42.36 57.5606 42.36C59.694 42.36 61.5473 42.8133 63.1206 43.72C64.694 44.6267 65.9073 45.8933 66.7606 47.52C67.6406 49.12 68.0806 51 68.0806 53.16V65.24C68.0806 67.1067 67.534 68.5867 66.4406 69.68C65.3473 70.8 63.854 71.36 61.9606 71.36H9.04ZM57.5206 60.32C58.8806 60.32 60.0673 60 61.0806 59.36C62.1206 58.72 62.9206 57.8533 63.4806 56.76C64.0673 55.64 64.3606 54.3867 64.3606 53C64.3606 51.5867 64.0806 50.32 63.5206 49.2C62.9606 48.08 62.174 47.2 61.1606 46.56C60.1473 45.8933 58.934 45.56 57.5206 45.56C56.134 45.56 54.934 45.8933 53.9206 46.56C52.934 47.2 52.1606 48.0933 51.6006 49.24C51.0673 50.36 50.8006 51.6267 50.8006 53.04C50.8006 54.3733 51.0673 55.6 51.6006 56.72C52.1606 57.8133 52.934 58.6933 53.9206 59.36C54.934 60 56.134 60.32 57.5206 60.32Z" fill="white"/>
<path d="M72.5866 61.34V34.04H76.2666V45.48C77.0932 44.4133 78.0932 43.6267 79.2666 43.12C80.4666 42.6133 81.7066 42.36 82.9866 42.36C84.7999 42.36 86.3732 42.7467 87.7066 43.52C89.0399 44.2667 90.0799 45.32 90.8266 46.68C91.5732 48.04 91.9466 49.6267 91.9466 51.44V61.34L91.9682 64.0321C91.9858 66.2286 93.7714 68 95.968 68H232.5V70.975L92.2739 71.2326C90.0619 71.2367 88.2666 69.4447 88.2666 67.2326V51.48C88.2666 50.2533 87.9866 49.2 87.4266 48.32C86.8666 47.4133 86.1199 46.72 85.1866 46.24C84.2799 45.76 83.3066 45.52 82.2666 45.52C81.2266 45.52 80.2532 45.76 79.3466 46.24C78.4399 46.6933 77.6932 47.36 77.1066 48.24C76.5466 49.12 76.2666 50.1733 76.2666 51.4V61.34H72.5866Z" fill="white"/>
<path d="M103.542 63.24C101.729 63.24 100.302 62.72 99.2619 61.68C98.2485 60.64 97.7419 59.2267 97.7419 57.44V37.72H101.422V57.2C101.422 58.08 101.662 58.7867 102.142 59.32C102.649 59.8267 103.342 60.08 104.222 60.08H118.04V63.24H103.542ZM94.2219 46V42.84H108.04V46H94.2219Z" fill="white"/>
<path d="M123.5 63L123.54 56.86L123.5 50.72C123.5 49.1467 123.78 47.7067 124.5 46.4C125.22 45.0933 126.26 44.0533 127.62 43.28C128.98 42.5067 130.62 42.12 132.54 42.12C133.473 42.12 134.407 42.2533 135.34 42.52C136.273 42.76 137.14 43.1867 137.94 43.8C138.74 44.3867 139.38 45.1867 139.86 46.2H139.9C140.433 45.1867 141.1 44.3867 141.9 43.8C142.7 43.1867 143.567 42.76 144.5 42.52C145.433 42.2533 146.38 42.12 147.34 42.12C149.233 42.12 150.86 42.5067 152.22 43.28C153.58 44.0533 154.62 45.0933 155.34 46.4C156.06 47.7067 156.42 49.1467 156.42 50.72V63H152.74V50.72C152.74 49.7067 152.5 48.7867 152.02 47.96C151.54 47.1333 150.887 46.48 150.06 46C149.26 45.52 148.34 45.28 147.3 45.28C146.287 45.28 145.353 45.5333 144.5 46.04C143.647 46.52 142.967 47.1733 142.46 48C141.98 48.8 141.74 49.7067 141.74 50.72V63H138.06V50.72C138.06 49.7067 137.807 48.8 137.3 48C136.82 47.1733 136.153 46.52 135.3 46.04C134.473 45.5333 133.54 45.28 132.5 45.28C131.487 45.28 130.567 45.52 129.74 46C128.94 46.48 128.3 47.1333 127.82 47.96C127.34 48.7867 127.1 49.7067 127.1 50.72V63L123.5 63Z" fill="white"/>
<path d="M169.528 63.48C167.555 63.48 165.848 63.0133 164.408 62.08C162.968 61.12 161.861 59.8267 161.088 58.2C160.315 56.5733 159.928 54.7733 159.928 52.8C159.928 50.8 160.355 49 161.208 47.4C162.061 45.7733 163.288 44.4933 164.888 43.56C166.488 42.6 168.408 42.12 170.648 42.12C172.808 42.12 174.661 42.5867 176.208 43.52C177.755 44.4533 178.941 45.72 179.768 47.32C180.621 48.92 181.048 50.7067 181.048 52.68V63H177.328V58.84H177.248C176.848 59.6133 176.301 60.36 175.608 61.08C174.941 61.7733 174.101 62.3467 173.088 62.8C172.075 63.2533 170.888 63.48 169.528 63.48ZM170.488 60.32C171.821 60.32 172.995 60 174.008 59.36C175.048 58.6933 175.848 57.7867 176.408 56.64C176.995 55.4667 177.288 54.16 177.288 52.72C177.288 51.3067 177.008 50.04 176.448 48.92C175.915 47.8 175.141 46.92 174.128 46.28C173.115 45.6133 171.928 45.28 170.568 45.28C169.128 45.28 167.888 45.6133 166.848 46.28C165.835 46.9467 165.048 47.8533 164.488 49C163.955 50.12 163.688 51.4 163.688 52.84C163.688 54.2267 163.955 55.4933 164.488 56.64C165.021 57.76 165.795 58.6533 166.808 59.32C167.821 59.9867 169.048 60.32 170.488 60.32Z" fill="white"/>
<path d="M185.588 63V48.4C185.588 46.5867 186.094 45.1733 187.108 44.16C188.148 43.12 189.574 42.6 191.388 42.6H195.588V45.76H192.068C191.188 45.76 190.494 46.0133 189.988 46.52C189.508 47.0267 189.268 47.7333 189.268 48.64V63H185.588Z" fill="white"/>
<path d="M207.669 63C205.562 63 203.682 62.5467 202.029 61.64C200.375 60.7333 199.069 59.52 198.109 58C197.149 56.4533 196.669 54.72 196.669 52.8C196.669 50.88 197.149 49.16 198.109 47.64C199.069 46.0933 200.375 44.8667 202.029 43.96C203.682 43.0533 205.562 42.6 207.669 42.6H210.069V45.76H207.549C206.189 45.76 204.962 46.08 203.869 46.72C202.802 47.3333 201.949 48.1733 201.309 49.24C200.695 50.3067 200.389 51.4933 200.389 52.8C200.389 54.1067 200.695 55.2933 201.309 56.36C201.949 57.4267 202.802 58.28 203.869 58.92C204.962 59.5333 206.189 59.84 207.549 59.84H210.069V63H207.669Z" fill="white"/>
<path d="M213.073 63V33.8H216.753V45.24C217.58 44.1733 218.58 43.3867 219.753 42.88C220.953 42.3733 222.193 42.12 223.473 42.12C225.286 42.12 226.86 42.5067 228.193 43.28C229.526 44.0267 230.566 45.08 231.313 46.44C232.06 47.8 232.5 49.4267 232.5 51.24V63L228.753 63V51.24C228.753 50.0133 228.473 48.96 227.913 48.08C227.353 47.1733 226.606 46.48 225.673 46C224.766 45.52 223.793 45.28 222.753 45.28C221.713 45.28 220.74 45.52 219.833 46C218.926 46.4533 218.18 47.12 217.593 48C217.033 48.88 216.753 49.9333 216.753 51.16V63H213.073Z" fill="white"/>
<path d="M11.72 19.16H9C9 19.16 9.00003 19.0533 9.00003 18.84V16.84C9.00003 16.6267 9 16.52 9 16.52H11.72V11.56C11.72 11.32 11.8133 11.2 12 11.2H12.2C12.9733 11.2 13.5733 11.44 14 11.92C14.4533 12.3733 14.68 13.0667 14.68 14V16.52H17.76C17.9467 16.52 18.04 16.6267 18.04 16.84V18.84C18.04 19.0533 17.9467 19.16 17.76 19.16H14.68V30.88C14.68 31.12 14.5733 31.24 14.36 31.24H12C11.8133 31.24 11.72 31.12 11.72 30.88V19.16Z" fill="white"/>
<path d="M22.9747 18.32C23.3747 17.7067 23.9614 17.2 24.7347 16.8C25.508 16.3733 26.4414 16.16 27.5347 16.16C29.348 16.16 30.8014 16.7333 31.8947 17.88C32.988 19.0267 33.5347 20.5867 33.5347 22.56V30.88C33.5347 31.12 33.428 31.24 33.2147 31.24H30.8547C30.6414 31.24 30.5347 31.12 30.5347 30.88V23.08C30.5347 21.6933 30.2014 20.6533 29.5347 19.96C28.868 19.2667 27.9747 18.92 26.8547 18.92C25.6547 18.92 24.708 19.28 24.0147 20C23.3214 20.6933 22.9747 21.7867 22.9747 23.28V30.88C22.9747 31.12 22.8814 31.24 22.6947 31.24H20.3347C20.1214 31.24 20.0147 31.12 20.0147 30.88V9.36C20.0147 9.12 20.1214 9 20.3347 9H20.5347C22.1614 9 22.9747 9.92 22.9747 11.76V18.32Z" fill="white"/>
<path d="M38.7909 24.96C38.9509 26.3467 39.4576 27.3733 40.3109 28.04C41.1643 28.68 42.2843 29 43.6709 29C44.7909 29 45.6843 28.8533 46.3509 28.56C47.0176 28.2667 47.6309 27.92 48.1909 27.52C48.2976 27.4667 48.3909 27.4 48.4709 27.32C48.5776 27.24 48.6709 27.2 48.7509 27.2C48.8843 27.2 48.9776 27.2667 49.0309 27.4C49.1109 27.5067 49.1509 27.6267 49.1509 27.76C49.1509 28.32 48.9243 28.9067 48.4709 29.52C48.0443 30.1067 47.3909 30.6 46.5109 31C45.6576 31.4 44.5909 31.6 43.3109 31.6C42.0043 31.6 40.7776 31.3333 39.6309 30.8C38.5109 30.24 37.5909 29.4 36.8709 28.28C36.1776 27.1333 35.8309 25.6667 35.8309 23.88C35.8309 22.3867 36.1243 21.0667 36.7109 19.92C37.2976 18.7467 38.1109 17.8267 39.1509 17.16C40.2176 16.4933 41.4443 16.16 42.8309 16.16C44.4043 16.16 45.6709 16.4933 46.6309 17.16C47.5909 17.8 48.2843 18.64 48.7109 19.68C49.1643 20.6933 49.3909 21.7733 49.3909 22.92C49.3909 23.2667 49.3776 23.56 49.3509 23.8C49.3509 24.04 49.3376 24.2667 49.3109 24.48C49.2843 24.8 49.0843 24.96 48.7109 24.96H38.7909ZM38.8709 22.68H46.4309C46.4576 22.0667 46.3643 21.4667 46.1509 20.88C45.9643 20.2933 45.6043 19.8 45.0709 19.4C44.5376 19 43.7776 18.8 42.7909 18.8C41.6709 18.8 40.7643 19.1467 40.0709 19.84C39.4043 20.5067 39.0043 21.4533 38.8709 22.68Z" fill="white"/>
<path d="M170.5 48L172.268 51.2322L175.5 53L172.268 54.7678L170.5 58L168.732 54.7678L165.5 53L168.732 51.2322L170.5 48Z" fill="white"/>
<path d="M74.5 62L76.091 64.909L79 66.5L76.091 68.091L74.5 71L72.909 68.091L70 66.5L72.909 64.909L74.5 62Z" fill="white"/>
</g>
<g filter="url(#filter1_dddddddd_184_80)">
<path d="M150.588 28.5L152.355 31.7322L155.588 33.5L152.355 35.2678L150.588 38.5L148.82 35.2678L145.588 33.5L148.82 31.7322L150.588 28.5Z" fill="white"/>
<path d="M160.588 23.5L162.355 26.7322L165.588 28.5L162.355 30.2678L160.588 33.5L158.82 30.2678L155.588 28.5L158.82 26.7322L160.588 23.5Z" fill="white"/>
<path d="M170.588 28.5L172.355 31.7322L175.588 33.5L172.355 35.2678L170.588 38.5L168.82 35.2678L165.588 33.5L168.82 31.7322L170.588 28.5Z" fill="white"/>
<path d="M180.588 23.5L182.355 26.7322L185.588 28.5L182.355 30.2678L180.588 33.5L178.82 30.2678L175.588 28.5L178.82 26.7322L180.588 23.5Z" fill="white"/>
<path d="M190.588 28.5L192.355 31.7322L195.588 33.5L192.355 35.2678L190.588 38.5L188.82 35.2678L185.588 33.5L188.82 31.7322L190.588 28.5Z" fill="white"/>
<path d="M27.84 63.72C26.3467 63.72 25.0267 63.3867 23.88 62.72C22.76 62.0267 21.88 61.0933 21.24 59.92C20.6 58.7467 20.28 57.4267 20.28 55.96V42C20.28 41.28 20.1067 40.6267 19.76 40.04C19.4133 39.4533 18.9467 38.9867 18.36 38.64C17.7733 38.2933 17.1333 38.12 16.44 38.12C15.7467 38.12 15.1067 38.2933 14.52 38.64C13.96 38.9867 13.5067 39.4533 13.16 40.04C12.84 40.6267 12.68 41.28 12.68 42V63.24H9.04V42.52C9.04 41.0533 9.16 39.7333 9.8 38.56C10.44 37.3867 11.3333 36.4667 12.48 35.8C13.6267 35.1067 14.9467 34.76 16.44 34.76C17.96 34.76 19.2933 35.1067 20.44 35.8C21.5867 36.4667 22.48 37.3867 23.12 38.56C23.76 39.7333 24.08 41.0533 24.08 42.52V56.48C24.08 57.2 24.2533 57.8533 24.6 58.44C24.9467 59.0267 25.4 59.4933 25.96 59.84C26.5467 60.1867 27.1733 60.36 27.84 60.36C28.5067 60.36 29.12 60.1867 29.68 59.84C30.24 59.4933 30.68 59.0267 31 58.44C31.3467 57.8533 31.52 57.2 31.52 56.48V35.24H35.36V55.96C35.36 57.4267 35.04 58.7467 34.4 59.92C33.76 61.0933 32.88 62.0267 31.76 62.72C30.64 63.3867 29.3333 63.72 27.84 63.72Z" fill="white"/>
<path d="M39.8694 63.24V42.84H43.5894V63.24H39.8694ZM41.7494 39.6C41.0827 39.6 40.496 39.36 39.9894 38.88C39.5094 38.3733 39.2694 37.7867 39.2694 37.12C39.2694 36.4533 39.5094 35.88 39.9894 35.4C40.496 34.8933 41.0827 34.64 41.7494 34.64C42.416 34.64 42.9894 34.8933 43.4694 35.4C43.976 35.88 44.2294 36.4533 44.2294 37.12C44.2294 37.7867 43.976 38.3733 43.4694 38.88C42.9894 39.36 42.416 39.6 41.7494 39.6Z" fill="white"/>
<path d="M9.04 71.36V68.2H61.2806C62.2673 68.2 63.0273 67.9067 63.5606 67.32C64.1206 66.7333 64.4006 65.96 64.4006 65V59.4H64.3206C63.814 60.1733 63.2006 60.8667 62.4806 61.48C61.7606 62.0933 60.934 62.5867 60.0006 62.96C59.0673 63.3067 58.014 63.48 56.8406 63.48C54.9206 63.48 53.2273 63.04 51.7606 62.16C50.294 61.2533 49.1473 60.0133 48.3206 58.44C47.494 56.84 47.0806 55.0133 47.0806 52.96C47.0806 50.96 47.494 49.16 48.3206 47.56C49.1473 45.96 50.334 44.6933 51.8806 43.76C53.454 42.8267 55.3473 42.36 57.5606 42.36C59.694 42.36 61.5473 42.8133 63.1206 43.72C64.694 44.6267 65.9073 45.8933 66.7606 47.52C67.6406 49.12 68.0806 51 68.0806 53.16V65.24C68.0806 67.1067 67.534 68.5867 66.4406 69.68C65.3473 70.8 63.854 71.36 61.9606 71.36H9.04ZM57.5206 60.32C58.8806 60.32 60.0673 60 61.0806 59.36C62.1206 58.72 62.9206 57.8533 63.4806 56.76C64.0673 55.64 64.3606 54.3867 64.3606 53C64.3606 51.5867 64.0806 50.32 63.5206 49.2C62.9606 48.08 62.174 47.2 61.1606 46.56C60.1473 45.8933 58.934 45.56 57.5206 45.56C56.134 45.56 54.934 45.8933 53.9206 46.56C52.934 47.2 52.1606 48.0933 51.6006 49.24C51.0673 50.36 50.8006 51.6267 50.8006 53.04C50.8006 54.3733 51.0673 55.6 51.6006 56.72C52.1606 57.8133 52.934 58.6933 53.9206 59.36C54.934 60 56.134 60.32 57.5206 60.32Z" fill="white"/>
<path d="M72.5866 61.34V34.04H76.2666V45.48C77.0932 44.4133 78.0932 43.6267 79.2666 43.12C80.4666 42.6133 81.7066 42.36 82.9866 42.36C84.7999 42.36 86.3732 42.7467 87.7066 43.52C89.0399 44.2667 90.0799 45.32 90.8266 46.68C91.5732 48.04 91.9466 49.6267 91.9466 51.44V61.34L91.9682 64.0321C91.9858 66.2286 93.7714 68 95.968 68H232.5V70.975L92.2739 71.2326C90.0619 71.2367 88.2666 69.4447 88.2666 67.2326V51.48C88.2666 50.2533 87.9866 49.2 87.4266 48.32C86.8666 47.4133 86.1199 46.72 85.1866 46.24C84.2799 45.76 83.3066 45.52 82.2666 45.52C81.2266 45.52 80.2532 45.76 79.3466 46.24C78.4399 46.6933 77.6932 47.36 77.1066 48.24C76.5466 49.12 76.2666 50.1733 76.2666 51.4V61.34H72.5866Z" fill="white"/>
<path d="M103.542 63.24C101.729 63.24 100.302 62.72 99.2619 61.68C98.2485 60.64 97.7419 59.2267 97.7419 57.44V37.72H101.422V57.2C101.422 58.08 101.662 58.7867 102.142 59.32C102.649 59.8267 103.342 60.08 104.222 60.08H118.04V63.24H103.542ZM94.2219 46V42.84H108.04V46H94.2219Z" fill="white"/>
<path d="M123.5 63L123.54 56.86L123.5 50.72C123.5 49.1467 123.78 47.7067 124.5 46.4C125.22 45.0933 126.26 44.0533 127.62 43.28C128.98 42.5067 130.62 42.12 132.54 42.12C133.473 42.12 134.407 42.2533 135.34 42.52C136.273 42.76 137.14 43.1867 137.94 43.8C138.74 44.3867 139.38 45.1867 139.86 46.2H139.9C140.433 45.1867 141.1 44.3867 141.9 43.8C142.7 43.1867 143.567 42.76 144.5 42.52C145.433 42.2533 146.38 42.12 147.34 42.12C149.233 42.12 150.86 42.5067 152.22 43.28C153.58 44.0533 154.62 45.0933 155.34 46.4C156.06 47.7067 156.42 49.1467 156.42 50.72V63H152.74V50.72C152.74 49.7067 152.5 48.7867 152.02 47.96C151.54 47.1333 150.887 46.48 150.06 46C149.26 45.52 148.34 45.28 147.3 45.28C146.287 45.28 145.353 45.5333 144.5 46.04C143.647 46.52 142.967 47.1733 142.46 48C141.98 48.8 141.74 49.7067 141.74 50.72V63H138.06V50.72C138.06 49.7067 137.807 48.8 137.3 48C136.82 47.1733 136.153 46.52 135.3 46.04C134.473 45.5333 133.54 45.28 132.5 45.28C131.487 45.28 130.567 45.52 129.74 46C128.94 46.48 128.3 47.1333 127.82 47.96C127.34 48.7867 127.1 49.7067 127.1 50.72V63L123.5 63Z" fill="white"/>
<path d="M169.528 63.48C167.555 63.48 165.848 63.0133 164.408 62.08C162.968 61.12 161.861 59.8267 161.088 58.2C160.315 56.5733 159.928 54.7733 159.928 52.8C159.928 50.8 160.355 49 161.208 47.4C162.061 45.7733 163.288 44.4933 164.888 43.56C166.488 42.6 168.408 42.12 170.648 42.12C172.808 42.12 174.661 42.5867 176.208 43.52C177.755 44.4533 178.941 45.72 179.768 47.32C180.621 48.92 181.048 50.7067 181.048 52.68V63H177.328V58.84H177.248C176.848 59.6133 176.301 60.36 175.608 61.08C174.941 61.7733 174.101 62.3467 173.088 62.8C172.075 63.2533 170.888 63.48 169.528 63.48ZM170.488 60.32C171.821 60.32 172.995 60 174.008 59.36C175.048 58.6933 175.848 57.7867 176.408 56.64C176.995 55.4667 177.288 54.16 177.288 52.72C177.288 51.3067 177.008 50.04 176.448 48.92C175.915 47.8 175.141 46.92 174.128 46.28C173.115 45.6133 171.928 45.28 170.568 45.28C169.128 45.28 167.888 45.6133 166.848 46.28C165.835 46.9467 165.048 47.8533 164.488 49C163.955 50.12 163.688 51.4 163.688 52.84C163.688 54.2267 163.955 55.4933 164.488 56.64C165.021 57.76 165.795 58.6533 166.808 59.32C167.821 59.9867 169.048 60.32 170.488 60.32Z" fill="white"/>
<path d="M185.588 63V48.4C185.588 46.5867 186.094 45.1733 187.108 44.16C188.148 43.12 189.574 42.6 191.388 42.6H195.588V45.76H192.068C191.188 45.76 190.494 46.0133 189.988 46.52C189.508 47.0267 189.268 47.7333 189.268 48.64V63H185.588Z" fill="white"/>
<path d="M207.669 63C205.562 63 203.682 62.5467 202.029 61.64C200.375 60.7333 199.069 59.52 198.109 58C197.149 56.4533 196.669 54.72 196.669 52.8C196.669 50.88 197.149 49.16 198.109 47.64C199.069 46.0933 200.375 44.8667 202.029 43.96C203.682 43.0533 205.562 42.6 207.669 42.6H210.069V45.76H207.549C206.189 45.76 204.962 46.08 203.869 46.72C202.802 47.3333 201.949 48.1733 201.309 49.24C200.695 50.3067 200.389 51.4933 200.389 52.8C200.389 54.1067 200.695 55.2933 201.309 56.36C201.949 57.4267 202.802 58.28 203.869 58.92C204.962 59.5333 206.189 59.84 207.549 59.84H210.069V63H207.669Z" fill="white"/>
<path d="M213.073 63V33.8H216.753V45.24C217.58 44.1733 218.58 43.3867 219.753 42.88C220.953 42.3733 222.193 42.12 223.473 42.12C225.286 42.12 226.86 42.5067 228.193 43.28C229.526 44.0267 230.566 45.08 231.313 46.44C232.06 47.8 232.5 49.4267 232.5 51.24V63L228.753 63V51.24C228.753 50.0133 228.473 48.96 227.913 48.08C227.353 47.1733 226.606 46.48 225.673 46C224.766 45.52 223.793 45.28 222.753 45.28C221.713 45.28 220.74 45.52 219.833 46C218.926 46.4533 218.18 47.12 217.593 48C217.033 48.88 216.753 49.9333 216.753 51.16V63H213.073Z" fill="white"/>
<path d="M11.72 19.16H9C9 19.16 9.00003 19.0533 9.00003 18.84V16.84C9.00003 16.6267 9 16.52 9 16.52H11.72V11.56C11.72 11.32 11.8133 11.2 12 11.2H12.2C12.9733 11.2 13.5733 11.44 14 11.92C14.4533 12.3733 14.68 13.0667 14.68 14V16.52H17.76C17.9467 16.52 18.04 16.6267 18.04 16.84V18.84C18.04 19.0533 17.9467 19.16 17.76 19.16H14.68V30.88C14.68 31.12 14.5733 31.24 14.36 31.24H12C11.8133 31.24 11.72 31.12 11.72 30.88V19.16Z" fill="white"/>
<path d="M22.9747 18.32C23.3747 17.7067 23.9614 17.2 24.7347 16.8C25.508 16.3733 26.4414 16.16 27.5347 16.16C29.348 16.16 30.8014 16.7333 31.8947 17.88C32.988 19.0267 33.5347 20.5867 33.5347 22.56V30.88C33.5347 31.12 33.428 31.24 33.2147 31.24H30.8547C30.6414 31.24 30.5347 31.12 30.5347 30.88V23.08C30.5347 21.6933 30.2014 20.6533 29.5347 19.96C28.868 19.2667 27.9747 18.92 26.8547 18.92C25.6547 18.92 24.708 19.28 24.0147 20C23.3214 20.6933 22.9747 21.7867 22.9747 23.28V30.88C22.9747 31.12 22.8814 31.24 22.6947 31.24H20.3347C20.1214 31.24 20.0147 31.12 20.0147 30.88V9.36C20.0147 9.12 20.1214 9 20.3347 9H20.5347C22.1614 9 22.9747 9.92 22.9747 11.76V18.32Z" fill="white"/>
<path d="M38.7909 24.96C38.9509 26.3467 39.4576 27.3733 40.3109 28.04C41.1643 28.68 42.2843 29 43.6709 29C44.7909 29 45.6843 28.8533 46.3509 28.56C47.0176 28.2667 47.6309 27.92 48.1909 27.52C48.2976 27.4667 48.3909 27.4 48.4709 27.32C48.5776 27.24 48.6709 27.2 48.7509 27.2C48.8843 27.2 48.9776 27.2667 49.0309 27.4C49.1109 27.5067 49.1509 27.6267 49.1509 27.76C49.1509 28.32 48.9243 28.9067 48.4709 29.52C48.0443 30.1067 47.3909 30.6 46.5109 31C45.6576 31.4 44.5909 31.6 43.3109 31.6C42.0043 31.6 40.7776 31.3333 39.6309 30.8C38.5109 30.24 37.5909 29.4 36.8709 28.28C36.1776 27.1333 35.8309 25.6667 35.8309 23.88C35.8309 22.3867 36.1243 21.0667 36.7109 19.92C37.2976 18.7467 38.1109 17.8267 39.1509 17.16C40.2176 16.4933 41.4443 16.16 42.8309 16.16C44.4043 16.16 45.6709 16.4933 46.6309 17.16C47.5909 17.8 48.2843 18.64 48.7109 19.68C49.1643 20.6933 49.3909 21.7733 49.3909 22.92C49.3909 23.2667 49.3776 23.56 49.3509 23.8C49.3509 24.04 49.3376 24.2667 49.3109 24.48C49.2843 24.8 49.0843 24.96 48.7109 24.96H38.7909ZM38.8709 22.68H46.4309C46.4576 22.0667 46.3643 21.4667 46.1509 20.88C45.9643 20.2933 45.6043 19.8 45.0709 19.4C44.5376 19 43.7776 18.8 42.7909 18.8C41.6709 18.8 40.7643 19.1467 40.0709 19.84C39.4043 20.5067 39.0043 21.4533 38.8709 22.68Z" fill="white"/>
<path d="M170.5 48L172.268 51.2322L175.5 53L172.268 54.7678L170.5 58L168.732 54.7678L165.5 53L168.732 51.2322L170.5 48Z" fill="white"/>
<path d="M74.5 62L76.091 64.909L79 66.5L76.091 68.091L74.5 71L72.909 68.091L70 66.5L72.909 64.909L74.5 62Z" fill="white"/>
</g>
<path d="M150.588 28.5L152.355 31.7322L155.588 33.5L152.355 35.2678L150.588 38.5L148.82 35.2678L145.588 33.5L148.82 31.7322L150.588 28.5Z" fill="#FAC3CC"/>
<path d="M160.588 23.5L162.355 26.7322L165.588 28.5L162.355 30.2678L160.588 33.5L158.82 30.2678L155.588 28.5L158.82 26.7322L160.588 23.5Z" fill="#FAC3CC"/>
<path d="M170.588 28.5L172.355 31.7322L175.588 33.5L172.355 35.2678L170.588 38.5L168.82 35.2678L165.588 33.5L168.82 31.7322L170.588 28.5Z" fill="#FAC3CC"/>
<path d="M180.588 23.5L182.355 26.7322L185.588 28.5L182.355 30.2678L180.588 33.5L178.82 30.2678L175.588 28.5L178.82 26.7322L180.588 23.5Z" fill="#FAC3CC"/>
<path d="M190.588 28.5L192.355 31.7322L195.588 33.5L192.355 35.2678L190.588 38.5L188.82 35.2678L185.588 33.5L188.82 31.7322L190.588 28.5Z" fill="#FAC3CC"/>
<path d="M27.84 63.72C26.3467 63.72 25.0267 63.3867 23.88 62.72C22.76 62.0267 21.88 61.0933 21.24 59.92C20.6 58.7467 20.28 57.4267 20.28 55.96V42C20.28 41.28 20.1067 40.6267 19.76 40.04C19.4133 39.4533 18.9467 38.9867 18.36 38.64C17.7733 38.2933 17.1333 38.12 16.44 38.12C15.7467 38.12 15.1067 38.2933 14.52 38.64C13.96 38.9867 13.5067 39.4533 13.16 40.04C12.84 40.6267 12.68 41.28 12.68 42V63.24H9.04V42.52C9.04 41.0533 9.16 39.7333 9.8 38.56C10.44 37.3867 11.3333 36.4667 12.48 35.8C13.6267 35.1067 14.9467 34.76 16.44 34.76C17.96 34.76 19.2933 35.1067 20.44 35.8C21.5867 36.4667 22.48 37.3867 23.12 38.56C23.76 39.7333 24.08 41.0533 24.08 42.52V56.48C24.08 57.2 24.2533 57.8533 24.6 58.44C24.9467 59.0267 25.4 59.4933 25.96 59.84C26.5467 60.1867 27.1733 60.36 27.84 60.36C28.5067 60.36 29.12 60.1867 29.68 59.84C30.24 59.4933 30.68 59.0267 31 58.44C31.3467 57.8533 31.52 57.2 31.52 56.48V35.24H35.36V55.96C35.36 57.4267 35.04 58.7467 34.4 59.92C33.76 61.0933 32.88 62.0267 31.76 62.72C30.64 63.3867 29.3333 63.72 27.84 63.72Z" fill="#FAC3CC"/>
<path d="M39.8694 63.24V42.84H43.5894V63.24H39.8694ZM41.7494 39.6C41.0827 39.6 40.496 39.36 39.9894 38.88C39.5094 38.3733 39.2694 37.7867 39.2694 37.12C39.2694 36.4533 39.5094 35.88 39.9894 35.4C40.496 34.8933 41.0827 34.64 41.7494 34.64C42.416 34.64 42.9894 34.8933 43.4694 35.4C43.976 35.88 44.2294 36.4533 44.2294 37.12C44.2294 37.7867 43.976 38.3733 43.4694 38.88C42.9894 39.36 42.416 39.6 41.7494 39.6Z" fill="#FAC3CC"/>
<path d="M9.04 71.36V68.2H61.2806C62.2673 68.2 63.0273 67.9067 63.5606 67.32C64.1206 66.7333 64.4006 65.96 64.4006 65V59.4H64.3206C63.814 60.1733 63.2006 60.8667 62.4806 61.48C61.7606 62.0933 60.934 62.5867 60.0006 62.96C59.0673 63.3067 58.014 63.48 56.8406 63.48C54.9206 63.48 53.2273 63.04 51.7606 62.16C50.294 61.2533 49.1473 60.0133 48.3206 58.44C47.494 56.84 47.0806 55.0133 47.0806 52.96C47.0806 50.96 47.494 49.16 48.3206 47.56C49.1473 45.96 50.334 44.6933 51.8806 43.76C53.454 42.8267 55.3473 42.36 57.5606 42.36C59.694 42.36 61.5473 42.8133 63.1206 43.72C64.694 44.6267 65.9073 45.8933 66.7606 47.52C67.6406 49.12 68.0806 51 68.0806 53.16V65.24C68.0806 67.1067 67.534 68.5867 66.4406 69.68C65.3473 70.8 63.854 71.36 61.9606 71.36H9.04ZM57.5206 60.32C58.8806 60.32 60.0673 60 61.0806 59.36C62.1206 58.72 62.9206 57.8533 63.4806 56.76C64.0673 55.64 64.3606 54.3867 64.3606 53C64.3606 51.5867 64.0806 50.32 63.5206 49.2C62.9606 48.08 62.174 47.2 61.1606 46.56C60.1473 45.8933 58.934 45.56 57.5206 45.56C56.134 45.56 54.934 45.8933 53.9206 46.56C52.934 47.2 52.1606 48.0933 51.6006 49.24C51.0673 50.36 50.8006 51.6267 50.8006 53.04C50.8006 54.3733 51.0673 55.6 51.6006 56.72C52.1606 57.8133 52.934 58.6933 53.9206 59.36C54.934 60 56.134 60.32 57.5206 60.32Z" fill="#FAC3CC"/>
<path d="M72.5866 61.34V34.04H76.2666V45.48C77.0932 44.4133 78.0932 43.6267 79.2666 43.12C80.4666 42.6133 81.7066 42.36 82.9866 42.36C84.7999 42.36 86.3732 42.7467 87.7066 43.52C89.0399 44.2667 90.0799 45.32 90.8266 46.68C91.5732 48.04 91.9466 49.6267 91.9466 51.44V61.34L91.9682 64.0321C91.9858 66.2286 93.7714 68 95.968 68H232.5V70.975L92.2739 71.2326C90.0619 71.2367 88.2666 69.4447 88.2666 67.2326V51.48C88.2666 50.2533 87.9866 49.2 87.4266 48.32C86.8666 47.4133 86.1199 46.72 85.1866 46.24C84.2799 45.76 83.3066 45.52 82.2666 45.52C81.2266 45.52 80.2532 45.76 79.3466 46.24C78.4399 46.6933 77.6932 47.36 77.1066 48.24C76.5466 49.12 76.2666 50.1733 76.2666 51.4V61.34H72.5866Z" fill="#FAC3CC"/>
<path d="M103.542 63.24C101.729 63.24 100.302 62.72 99.2619 61.68C98.2485 60.64 97.7419 59.2267 97.7419 57.44V37.72H101.422V57.2C101.422 58.08 101.662 58.7867 102.142 59.32C102.649 59.8267 103.342 60.08 104.222 60.08H118.04V63.24H103.542ZM94.2219 46V42.84H108.04V46H94.2219Z" fill="#FAC3CC"/>
<path d="M123.5 63L123.54 56.86L123.5 50.72C123.5 49.1467 123.78 47.7067 124.5 46.4C125.22 45.0933 126.26 44.0533 127.62 43.28C128.98 42.5067 130.62 42.12 132.54 42.12C133.473 42.12 134.407 42.2533 135.34 42.52C136.273 42.76 137.14 43.1867 137.94 43.8C138.74 44.3867 139.38 45.1867 139.86 46.2H139.9C140.433 45.1867 141.1 44.3867 141.9 43.8C142.7 43.1867 143.567 42.76 144.5 42.52C145.433 42.2533 146.38 42.12 147.34 42.12C149.233 42.12 150.86 42.5067 152.22 43.28C153.58 44.0533 154.62 45.0933 155.34 46.4C156.06 47.7067 156.42 49.1467 156.42 50.72V63H152.74V50.72C152.74 49.7067 152.5 48.7867 152.02 47.96C151.54 47.1333 150.887 46.48 150.06 46C149.26 45.52 148.34 45.28 147.3 45.28C146.287 45.28 145.353 45.5333 144.5 46.04C143.647 46.52 142.967 47.1733 142.46 48C141.98 48.8 141.74 49.7067 141.74 50.72V63H138.06V50.72C138.06 49.7067 137.807 48.8 137.3 48C136.82 47.1733 136.153 46.52 135.3 46.04C134.473 45.5333 133.54 45.28 132.5 45.28C131.487 45.28 130.567 45.52 129.74 46C128.94 46.48 128.3 47.1333 127.82 47.96C127.34 48.7867 127.1 49.7067 127.1 50.72V63L123.5 63Z" fill="#FAC3CC"/>
<path d="M169.528 63.48C167.555 63.48 165.848 63.0133 164.408 62.08C162.968 61.12 161.861 59.8267 161.088 58.2C160.315 56.5733 159.928 54.7733 159.928 52.8C159.928 50.8 160.355 49 161.208 47.4C162.061 45.7733 163.288 44.4933 164.888 43.56C166.488 42.6 168.408 42.12 170.648 42.12C172.808 42.12 174.661 42.5867 176.208 43.52C177.755 44.4533 178.941 45.72 179.768 47.32C180.621 48.92 181.048 50.7067 181.048 52.68V63H177.328V58.84H177.248C176.848 59.6133 176.301 60.36 175.608 61.08C174.941 61.7733 174.101 62.3467 173.088 62.8C172.075 63.2533 170.888 63.48 169.528 63.48ZM170.488 60.32C171.821 60.32 172.995 60 174.008 59.36C175.048 58.6933 175.848 57.7867 176.408 56.64C176.995 55.4667 177.288 54.16 177.288 52.72C177.288 51.3067 177.008 50.04 176.448 48.92C175.915 47.8 175.141 46.92 174.128 46.28C173.115 45.6133 171.928 45.28 170.568 45.28C169.128 45.28 167.888 45.6133 166.848 46.28C165.835 46.9467 165.048 47.8533 164.488 49C163.955 50.12 163.688 51.4 163.688 52.84C163.688 54.2267 163.955 55.4933 164.488 56.64C165.021 57.76 165.795 58.6533 166.808 59.32C167.821 59.9867 169.048 60.32 170.488 60.32Z" fill="#FAC3CC"/>
<path d="M185.588 63V48.4C185.588 46.5867 186.094 45.1733 187.108 44.16C188.148 43.12 189.574 42.6 191.388 42.6H195.588V45.76H192.068C191.188 45.76 190.494 46.0133 189.988 46.52C189.508 47.0267 189.268 47.7333 189.268 48.64V63H185.588Z" fill="#FAC3CC"/>
<path d="M207.669 63C205.562 63 203.682 62.5467 202.029 61.64C200.375 60.7333 199.069 59.52 198.109 58C197.149 56.4533 196.669 54.72 196.669 52.8C196.669 50.88 197.149 49.16 198.109 47.64C199.069 46.0933 200.375 44.8667 202.029 43.96C203.682 43.0533 205.562 42.6 207.669 42.6H210.069V45.76H207.549C206.189 45.76 204.962 46.08 203.869 46.72C202.802 47.3333 201.949 48.1733 201.309 49.24C200.695 50.3067 200.389 51.4933 200.389 52.8C200.389 54.1067 200.695 55.2933 201.309 56.36C201.949 57.4267 202.802 58.28 203.869 58.92C204.962 59.5333 206.189 59.84 207.549 59.84H210.069V63H207.669Z" fill="#FAC3CC"/>
<path d="M213.073 63V33.8H216.753V45.24C217.58 44.1733 218.58 43.3867 219.753 42.88C220.953 42.3733 222.193 42.12 223.473 42.12C225.286 42.12 226.86 42.5067 228.193 43.28C229.526 44.0267 230.566 45.08 231.313 46.44C232.06 47.8 232.5 49.4267 232.5 51.24V63L228.753 63V51.24C228.753 50.0133 228.473 48.96 227.913 48.08C227.353 47.1733 226.606 46.48 225.673 46C224.766 45.52 223.793 45.28 222.753 45.28C221.713 45.28 220.74 45.52 219.833 46C218.926 46.4533 218.18 47.12 217.593 48C217.033 48.88 216.753 49.9333 216.753 51.16V63H213.073Z" fill="#FAC3CC"/>
<path d="M11.72 19.16H9C9 19.16 9.00003 19.0533 9.00003 18.84V16.84C9.00003 16.6267 9 16.52 9 16.52H11.72V11.56C11.72 11.32 11.8133 11.2 12 11.2H12.2C12.9733 11.2 13.5733 11.44 14 11.92C14.4533 12.3733 14.68 13.0667 14.68 14V16.52H17.76C17.9467 16.52 18.04 16.6267 18.04 16.84V18.84C18.04 19.0533 17.9467 19.16 17.76 19.16H14.68V30.88C14.68 31.12 14.5733 31.24 14.36 31.24H12C11.8133 31.24 11.72 31.12 11.72 30.88V19.16Z" fill="#FAC3CC"/>
<path d="M22.9747 18.32C23.3747 17.7067 23.9614 17.2 24.7347 16.8C25.508 16.3733 26.4414 16.16 27.5347 16.16C29.348 16.16 30.8014 16.7333 31.8947 17.88C32.988 19.0267 33.5347 20.5867 33.5347 22.56V30.88C33.5347 31.12 33.428 31.24 33.2147 31.24H30.8547C30.6414 31.24 30.5347 31.12 30.5347 30.88V23.08C30.5347 21.6933 30.2014 20.6533 29.5347 19.96C28.868 19.2667 27.9747 18.92 26.8547 18.92C25.6547 18.92 24.708 19.28 24.0147 20C23.3214 20.6933 22.9747 21.7867 22.9747 23.28V30.88C22.9747 31.12 22.8814 31.24 22.6947 31.24H20.3347C20.1214 31.24 20.0147 31.12 20.0147 30.88V9.36C20.0147 9.12 20.1214 9 20.3347 9H20.5347C22.1614 9 22.9747 9.92 22.9747 11.76V18.32Z" fill="#FAC3CC"/>
<path d="M38.7909 24.96C38.9509 26.3467 39.4576 27.3733 40.3109 28.04C41.1643 28.68 42.2843 29 43.6709 29C44.7909 29 45.6843 28.8533 46.3509 28.56C47.0176 28.2667 47.6309 27.92 48.1909 27.52C48.2976 27.4667 48.3909 27.4 48.4709 27.32C48.5776 27.24 48.6709 27.2 48.7509 27.2C48.8843 27.2 48.9776 27.2667 49.0309 27.4C49.1109 27.5067 49.1509 27.6267 49.1509 27.76C49.1509 28.32 48.9243 28.9067 48.4709 29.52C48.0443 30.1067 47.3909 30.6 46.5109 31C45.6576 31.4 44.5909 31.6 43.3109 31.6C42.0043 31.6 40.7776 31.3333 39.6309 30.8C38.5109 30.24 37.5909 29.4 36.8709 28.28C36.1776 27.1333 35.8309 25.6667 35.8309 23.88C35.8309 22.3867 36.1243 21.0667 36.7109 19.92C37.2976 18.7467 38.1109 17.8267 39.1509 17.16C40.2176 16.4933 41.4443 16.16 42.8309 16.16C44.4043 16.16 45.6709 16.4933 46.6309 17.16C47.5909 17.8 48.2843 18.64 48.7109 19.68C49.1643 20.6933 49.3909 21.7733 49.3909 22.92C49.3909 23.2667 49.3776 23.56 49.3509 23.8C49.3509 24.04 49.3376 24.2667 49.3109 24.48C49.2843 24.8 49.0843 24.96 48.7109 24.96H38.7909ZM38.8709 22.68H46.4309C46.4576 22.0667 46.3643 21.4667 46.1509 20.88C45.9643 20.2933 45.6043 19.8 45.0709 19.4C44.5376 19 43.7776 18.8 42.7909 18.8C41.6709 18.8 40.7643 19.1467 40.0709 19.84C39.4043 20.5067 39.0043 21.4533 38.8709 22.68Z" fill="#FAC3CC"/>
<path d="M170.5 48L172.268 51.2322L175.5 53L172.268 54.7678L170.5 58L168.732 54.7678L165.5 53L168.732 51.2322L170.5 48Z" fill="#FAC3CC"/>
<path d="M74.5 62L76.091 64.909L79 66.5L76.091 68.091L74.5 71L72.909 68.091L70 66.5L72.909 64.909L74.5 62Z" fill="#FAC3CC"/>
<defs>
<filter id="filter0_dddddddd_184_80" x="5" y="5" width="231.5" height="70.36" filterUnits="userSpaceOnUse" color-interpolation-filters="sRGB">
<feFlood flood-opacity="0" result="BackgroundImageFix"/>
<feColorMatrix in="SourceAlpha" type="matrix" values="0 0 0 0 0 0 0 0 0 0 0 0 0 0 0 0 0 0 127 0" result="hardAlpha"/>
<feOffset/>
<feGaussianBlur stdDeviation="2"/>
<feComposite in2="hardAlpha" operator="out"/>
<feColorMatrix type="matrix" values="0 0 0 0 0.858824 0 0 0 0 0.196078 0 0 0 0 0.301961 0 0 0 0.09 0"/>
<feBlend mode="normal" in2="BackgroundImageFix" result="effect1_dropShadow_184_80"/>
<feColorMatrix in="SourceAlpha" type="matrix" values="0 0 0 0 0 0 0 0 0 0 0 0 0 0 0 0 0 0 127 0" result="hardAlpha"/>
<feOffset/>
<feGaussianBlur stdDeviation="2"/>
<feComposite in2="hardAlpha" operator="out"/>
<feColorMatrix type="matrix" values="0 0 0 0 0.858824 0 0 0 0 0.196078 0 0 0 0 0.301961 0 0 0 0.09 0"/>
<feBlend mode="normal" in2="effect1_dropShadow_184_80" result="effect2_dropShadow_184_80"/>
<feColorMatrix in="SourceAlpha" type="matrix" values="0 0 0 0 0 0 0 0 0 0 0 0 0 0 0 0 0 0 127 0" result="hardAlpha"/>
<feOffset/>
<feGaussianBlur stdDeviation="2"/>
<feComposite in2="hardAlpha" operator="out"/>
<feColorMatrix type="matrix" values="0 0 0 0 0.858824 0 0 0 0 0.196078 0 0 0 0 0.301961 0 0 0 0.09 0"/>
<feBlend mode="normal" in2="effect2_dropShadow_184_80" result="effect3_dropShadow_184_80"/>
<feColorMatrix in="SourceAlpha" type="matrix" values="0 0 0 0 0 0 0 0 0 0 0 0 0 0 0 0 0 0 127 0" result="hardAlpha"/>
<feOffset/>
<feGaussianBlur stdDeviation="2"/>
<feComposite in2="hardAlpha" operator="out"/>
<feColorMatrix type="matrix" values="0 0 0 0 0.858824 0 0 0 0 0.196078 0 0 0 0 0.301961 0 0 0 0.09 0"/>
<feBlend mode="normal" in2="effect3_dropShadow_184_80" result="effect4_dropShadow_184_80"/>
<feColorMatrix in="SourceAlpha" type="matrix" values="0 0 0 0 0 0 0 0 0 0 0 0 0 0 0 0 0 0 127 0" result="hardAlpha"/>
<feOffset/>
<feGaussianBlur stdDeviation="2"/>
<feComposite in2="hardAlpha" operator="out"/>
<feColorMatrix type="matrix" values="0 0 0 0 0.858824 0 0 0 0 0.196078 0 0 0 0 0.301961 0 0 0 0.09 0"/>
<feBlend mode="normal" in2="effect4_dropShadow_184_80" result="effect5_dropShadow_184_80"/>
<feColorMatrix in="SourceAlpha" type="matrix" values="0 0 0 0 0 0 0 0 0 0 0 0 0 0 0 0 0 0 127 0" result="hardAlpha"/>
<feOffset/>
<feGaussianBlur stdDeviation="2"/>
<feComposite in2="hardAlpha" operator="out"/>
<feColorMatrix type="matrix" values="0 0 0 0 0.858824 0 0 0 0 0.196078 0 0 0 0 0.301961 0 0 0 0.09 0"/>
<feBlend mode="normal" in2="effect5_dropShadow_184_80" result="effect6_dropShadow_184_80"/>
<feColorMatrix in="SourceAlpha" type="matrix" values="0 0 0 0 0 0 0 0 0 0 0 0 0 0 0 0 0 0 127 0" result="hardAlpha"/>
<feOffset/>
<feGaussianBlur stdDeviation="2"/>
<feComposite in2="hardAlpha" operator="out"/>
<feColorMatrix type="matrix" values="0 0 0 0 0.858824 0 0 0 0 0.196078 0 0 0 0 0.301961 0 0 0 0.09 0"/>
<feBlend mode="normal" in2="effect6_dropShadow_184_80" result="effect7_dropShadow_184_80"/>
<feColorMatrix in="SourceAlpha" type="matrix" values="0 0 0 0 0 0 0 0 0 0 0 0 0 0 0 0 0 0 127 0" result="hardAlpha"/>
<feOffset/>
<feGaussianBlur stdDeviation="2"/>
<feComposite in2="hardAlpha" operator="out"/>
<feColorMatrix type="matrix" values="0 0 0 0 0.858824 0 0 0 0 0.196078 0 0 0 0 0.301961 0 0 0 0.09 0"/>
<feBlend mode="normal" in2="effect7_dropShadow_184_80" result="effect8_dropShadow_184_80"/>
<feBlend mode="normal" in="SourceGraphic" in2="effect8_dropShadow_184_80" result="shape"/>
</filter>
<filter id="filter1_dddddddd_184_80" x="0.5" y="0.5" width="240.5" height="79.36" filterUnits="userSpaceOnUse" color-interpolation-filters="sRGB">
<feFlood flood-opacity="0" result="BackgroundImageFix"/>
<feColorMatrix in="SourceAlpha" type="matrix" values="0 0 0 0 0 0 0 0 0 0 0 0 0 0 0 0 0 0 127 0" result="hardAlpha"/>
<feOffset/>
<feGaussianBlur stdDeviation="4.25"/>
<feComposite in2="hardAlpha" operator="out"/>
<feColorMatrix type="matrix" values="0 0 0 0 0.858824 0 0 0 0 0.196078 0 0 0 0 0.301961 0 0 0 0.22 0"/>
<feBlend mode="normal" in2="BackgroundImageFix" result="effect1_dropShadow_184_80"/>
<feColorMatrix in="SourceAlpha" type="matrix" values="0 0 0 0 0 0 0 0 0 0 0 0 0 0 0 0 0 0 127 0" result="hardAlpha"/>
<feOffset/>
<feGaussianBlur stdDeviation="4.25"/>
<feComposite in2="hardAlpha" operator="out"/>
<feColorMatrix type="matrix" values="0 0 0 0 0.858824 0 0 0 0 0.196078 0 0 0 0 0.301961 0 0 0 0.22 0"/>
<feBlend mode="normal" in2="effect1_dropShadow_184_80" result="effect2_dropShadow_184_80"/>
<feColorMatrix in="SourceAlpha" type="matrix" values="0 0 0 0 0 0 0 0 0 0 0 0 0 0 0 0 0 0 127 0" result="hardAlpha"/>
<feOffset/>
<feGaussianBlur stdDeviation="4.25"/>
<feComposite in2="hardAlpha" operator="out"/>
<feColorMatrix type="matrix" values="0 0 0 0 0.858824 0 0 0 0 0.196078 0 0 0 0 0.301961 0 0 0 0.22 0"/>
<feBlend mode="normal" in2="effect2_dropShadow_184_80" result="effect3_dropShadow_184_80"/>
<feColorMatrix in="SourceAlpha" type="matrix" values="0 0 0 0 0 0 0 0 0 0 0 0 0 0 0 0 0 0 127 0" result="hardAlpha"/>
<feOffset/>
<feGaussianBlur stdDeviation="4.25"/>
<feComposite in2="hardAlpha" operator="out"/>
<feColorMatrix type="matrix" values="0 0 0 0 0.858824 0 0 0 0 0.196078 0 0 0 0 0.301961 0 0 0 0.22 0"/>
<feBlend mode="normal" in2="effect3_dropShadow_184_80" result="effect4_dropShadow_184_80"/>
<feColorMatrix in="SourceAlpha" type="matrix" values="0 0 0 0 0 0 0 0 0 0 0 0 0 0 0 0 0 0 127 0" result="hardAlpha"/>
<feOffset/>
<feGaussianBlur stdDeviation="4.25"/>
<feComposite in2="hardAlpha" operator="out"/>
<feColorMatrix type="matrix" values="0 0 0 0 0.858824 0 0 0 0 0.196078 0 0 0 0 0.301961 0 0 0 0.22 0"/>
<feBlend mode="normal" in2="effect4_dropShadow_184_80" result="effect5_dropShadow_184_80"/>
<feColorMatrix in="SourceAlpha" type="matrix" values="0 0 0 0 0 0 0 0 0 0 0 0 0 0 0 0 0 0 127 0" result="hardAlpha"/>
<feOffset/>
<feGaussianBlur stdDeviation="4.25"/>
<feComposite in2="hardAlpha" operator="out"/>
<feColorMatrix type="matrix" values="0 0 0 0 0.858824 0 0 0 0 0.196078 0 0 0 0 0.301961 0 0 0 0.22 0"/>
<feBlend mode="normal" in2="effect5_dropShadow_184_80" result="effect6_dropShadow_184_80"/>
<feColorMatrix in="SourceAlpha" type="matrix" values="0 0 0 0 0 0 0 0 0 0 0 0 0 0 0 0 0 0 127 0" result="hardAlpha"/>
<feOffset/>
<feGaussianBlur stdDeviation="4.25"/>
<feComposite in2="hardAlpha" operator="out"/>
<feColorMatrix type="matrix" values="0 0 0 0 0.858824 0 0 0 0 0.196078 0 0 0 0 0.301961 0 0 0 0.22 0"/>
<feBlend mode="normal" in2="effect6_dropShadow_184_80" result="effect7_dropShadow_184_80"/>
<feColorMatrix in="SourceAlpha" type="matrix" values="0 0 0 0 0 0 0 0 0 0 0 0 0 0 0 0 0 0 127 0" result="hardAlpha"/>
<feOffset/>
<feGaussianBlur stdDeviation="4.25"/>
<feComposite in2="hardAlpha" operator="out"/>
<feColorMatrix type="matrix" values="0 0 0 0 0.858824 0 0 0 0 0.196078 0 0 0 0 0.301961 0 0 0 0.22 0"/>
<feBlend mode="normal" in2="effect7_dropShadow_184_80" result="effect8_dropShadow_184_80"/>
<feBlend mode="normal" in="SourceGraphic" in2="effect8_dropShadow_184_80" result="shape"/>
</filter>
</defs>
</svg>
