<svg width="85" height="70" viewBox="0 0 85 70" fill="none" xmlns="http://www.w3.org/2000/svg">
<path d="M41.9194 7.94325L43.2906 10.4505L45.7979 11.8218L43.2906 13.1931L41.9194 15.7003L40.5481 13.1931L38.0408 11.8218L40.5481 10.4505L41.9194 7.94325Z" fill="#EAAF26"/>
<path d="M49.6764 4.06471L51.0477 6.57198L53.555 7.94325L51.0477 9.31453L49.6764 11.8218L48.3052 9.31453L45.7979 7.94325L48.3052 6.57198L49.6764 4.06471Z" fill="#2640EA"/>
<path d="M57.4335 7.94325L58.8048 10.4505L61.3121 11.8218L58.8048 13.1931L57.4335 15.7003L56.0623 13.1931L53.555 11.8218L56.0623 10.4505L57.4335 7.94325Z" fill="#EAAF26"/>
<path d="M65.1906 4.06471L66.5619 6.57198L69.0692 7.94325L66.5619 9.31453L65.1906 11.8218L63.8194 9.31453L61.3121 7.94325L63.8194 6.57198L65.1906 4.06471Z" fill="#2640EA"/>
<path d="M72.9477 7.94325L74.319 10.4505L76.8263 11.8218L74.319 13.1931L72.9477 15.7003L71.5764 13.1931L69.0692 11.8218L71.5764 10.4505L72.9477 7.94325Z" fill="#EAAF26"/>
<path d="M14.6144 42.4468C13.456 42.4468 12.432 42.1882 11.5426 41.6711C10.6738 41.1333 9.99113 40.4093 9.49468 39.4991C8.99823 38.589 8.75 37.565 8.75 36.4273V25.5984C8.75 25.0399 8.61554 24.5331 8.34663 24.078C8.07772 23.6229 7.71572 23.2609 7.26064 22.992C6.80556 22.7231 6.3091 22.5887 5.77128 22.5887C5.23345 22.5887 4.737 22.7231 4.28192 22.992C3.84752 23.2609 3.49586 23.6229 3.22695 24.078C2.97872 24.5331 2.85461 25.0399 2.85461 25.5984V42.0745H0.0310284V26.0018C0.0310284 24.8641 0.124114 23.8401 0.620568 22.93C1.11702 22.0198 1.80999 21.3061 2.69947 20.789C3.58895 20.2512 4.61288 19.9823 5.77128 19.9823C6.95035 19.9823 7.98463 20.2512 8.87411 20.789C9.76359 21.3061 10.4566 22.0198 10.953 22.93C11.4495 23.8401 11.6977 24.8641 11.6977 26.0018V36.8307C11.6977 37.3892 11.8322 37.896 12.1011 38.3511C12.37 38.8061 12.7216 39.1681 13.156 39.4371C13.6111 39.706 14.0972 39.8404 14.6144 39.8404C15.1315 39.8404 15.6073 39.706 16.0417 39.4371C16.4761 39.1681 16.8174 38.8061 17.0656 38.3511C17.3345 37.896 17.469 37.3892 17.469 36.8307V20.3546H20.4477V36.4273C20.4477 37.565 20.1995 38.589 19.703 39.4991C19.2066 40.4093 18.5239 41.1333 17.6551 41.6711C16.7863 42.1882 15.7727 42.4468 14.6144 42.4468Z" fill="#FFFFF0"/>
<path d="M23.9457 42.0745V26.25H26.8313V42.0745H23.9457ZM25.404 23.7367C24.8869 23.7367 24.4318 23.5505 24.0387 23.1782C23.6664 22.7852 23.4802 22.3301 23.4802 21.8129C23.4802 21.2958 23.6664 20.8511 24.0387 20.4787C24.4318 20.0857 24.8869 19.8892 25.404 19.8892C25.9211 19.8892 26.3659 20.0857 26.7382 20.4787C27.1312 20.8511 27.3277 21.2958 27.3277 21.8129C27.3277 22.3301 27.1312 22.7852 26.7382 23.1782C26.3659 23.5505 25.9211 23.7367 25.404 23.7367Z" fill="#FFFFF0"/>
<path d="M0.0310284 48.3732V45.922H40.5546C41.3199 45.922 41.9095 45.6944 42.3232 45.2394C42.7576 44.7843 42.9748 44.1844 42.9748 43.4397V39.0957H42.9127C42.5197 39.6956 42.0439 40.2335 41.4854 40.7092C40.9269 41.185 40.2856 41.5677 39.5617 41.8573C38.8377 42.1262 38.0206 42.2606 37.1104 42.2606C35.6211 42.2606 34.3075 41.9193 33.1698 41.2367C32.0321 40.5334 31.1426 39.5715 30.5014 38.3511C29.8601 37.1099 29.5395 35.693 29.5395 34.1002C29.5395 32.5488 29.8601 31.1525 30.5014 29.9113C31.1426 28.6702 32.0631 27.6876 33.2629 26.9637C34.4833 26.2397 35.952 25.8777 37.6689 25.8777C39.3238 25.8777 40.7614 26.2293 41.9819 26.9326C43.2023 27.6359 44.1435 28.6185 44.8054 29.8803C45.4881 31.1215 45.8294 32.5798 45.8294 34.2553V43.6259C45.8294 45.0739 45.4053 46.2219 44.5572 47.07C43.7091 47.9388 42.5507 48.3732 41.082 48.3732H0.0310284ZM37.6379 39.8094C38.6929 39.8094 39.6134 39.5612 40.3994 39.0647C41.2062 38.5683 41.8267 37.896 42.2611 37.0479C42.7162 36.1791 42.9437 35.2069 42.9437 34.1312C42.9437 33.0349 42.7265 32.0523 42.2921 31.1835C41.8577 30.3147 41.2475 29.6321 40.4615 29.1356C39.6754 28.6185 38.7342 28.3599 37.6379 28.3599C36.5622 28.3599 35.6314 28.6185 34.8453 29.1356C34.08 29.6321 33.4801 30.3251 33.0457 31.2145C32.632 32.0833 32.4251 33.0659 32.4251 34.1622C32.4251 35.1965 32.632 36.1481 33.0457 37.0168C33.4801 37.865 34.08 38.5476 34.8453 39.0647C35.6314 39.5612 36.5622 39.8094 37.6379 39.8094Z" fill="#FFFFF0"/>
<path d="M49.3247 44V19.4238H52.1793V28.2979C52.8205 27.4704 53.5962 26.8602 54.5064 26.4672C55.4373 26.0742 56.3991 25.8777 57.392 25.8777C58.7987 25.8777 60.0191 26.1776 61.0534 26.7775C62.0877 27.3567 62.8944 28.1738 63.4736 29.2287C64.0528 30.2837 64.3424 31.5145 64.3424 32.9211V48.2801H61.4878V32.9521C61.4878 32.0006 61.2706 31.1835 60.8362 30.5009C60.4018 29.7976 59.8226 29.2598 59.0986 28.8874C58.3953 28.5151 57.6403 28.3289 56.8335 28.3289C56.0268 28.3289 55.2718 28.5151 54.5685 28.8874C53.8652 29.2391 53.286 29.7562 52.8309 30.4388C52.3965 31.1215 52.1793 31.9385 52.1793 32.8901V44H49.3247Z" fill="#FFFFF0"/>
<path d="M73.337 42.0745C71.9304 42.0745 70.8237 41.6711 70.017 40.8644C69.2309 40.0576 68.8379 38.9613 68.8379 37.5754V22.2784H71.6925V37.3892C71.6925 38.0718 71.8787 38.62 72.251 39.0337C72.644 39.4267 73.1818 39.6232 73.8645 39.6232H84.5833V42.0745H73.337ZM66.1074 28.7012V26.25H76.8263V28.7012H66.1074Z" fill="#FFFFF0"/>
<path d="M0.0310171 66.8972L0.062051 62.1343L0.0310284 57.3715C0.0310284 56.151 0.248227 55.034 0.806738 54.0204C1.36525 53.0068 2.17199 52.2001 3.22695 51.6002C4.28192 51.0003 5.55408 50.7004 7.04344 50.7004C7.76744 50.7004 8.49143 50.8038 9.21543 51.0106C9.93942 51.1968 10.6117 51.5278 11.2323 52.0035C11.8528 52.4586 12.3493 53.0792 12.7216 53.8652H12.7527C13.1664 53.0792 13.6835 52.4586 14.3041 52.0035C14.9246 51.5278 15.5969 51.1968 16.3209 51.0106C17.0449 50.8038 17.7793 50.7004 18.5239 50.7004C19.9926 50.7004 21.2544 51.0003 22.3094 51.6002C23.3644 52.2001 24.1711 53.0068 24.7296 54.0204C25.2881 55.034 25.5674 56.151 25.5674 57.3715V66.8972H22.7128V57.3715C22.7128 56.5854 22.5266 55.8718 22.1543 55.2305C21.7819 54.5892 21.2751 54.0824 20.6339 53.7101C20.0133 53.3378 19.2996 53.1516 18.4929 53.1516C17.7069 53.1516 16.9829 53.3481 16.3209 53.7411C15.659 54.1135 15.1315 54.6203 14.7385 55.2615C14.3661 55.8821 14.18 56.5854 14.18 57.3715V66.8972H11.3254V57.3715C11.3254 56.5854 11.1288 55.8821 10.7358 55.2615C10.3635 54.6203 9.84634 54.1135 9.1844 53.7411C8.54314 53.3481 7.81915 53.1516 7.01241 53.1516C6.22636 53.1516 5.51271 53.3378 4.87145 53.7101C4.25089 54.0824 3.75443 54.5892 3.38209 55.2305C3.00975 55.8718 2.82358 56.5854 2.82358 57.3715V66.8972L0.0310171 66.8972Z" fill="#FFFFF0"/>
<path d="M35.7355 67.2695C34.2047 67.2695 32.8809 66.9075 31.7638 66.1835C30.6468 65.4388 29.7884 64.4356 29.1885 63.1738C28.5886 61.9119 28.2887 60.5157 28.2887 58.9849C28.2887 57.4335 28.6196 56.0372 29.2816 54.7961C29.9435 53.5343 30.895 52.5414 32.1362 51.8174C33.3773 51.0727 34.8667 50.7004 36.6043 50.7004C38.2798 50.7004 39.7174 51.0624 40.9172 51.7864C42.117 52.5103 43.0375 53.4929 43.6787 54.734C44.3407 55.9752 44.6716 57.3611 44.6716 58.8918V66.8972H41.786V63.6702H41.7239C41.4137 64.2701 40.9896 64.8493 40.4518 65.4078C39.9346 65.9456 39.283 66.3904 38.497 66.742C37.7109 67.0937 36.7904 67.2695 35.7355 67.2695ZM36.4801 64.8183C37.5144 64.8183 38.4246 64.57 39.2106 64.0736C40.0174 63.5564 40.6379 62.8531 41.0723 61.9637C41.5274 61.0535 41.755 60.0399 41.755 58.9229C41.755 57.8265 41.5378 56.844 41.1034 55.9752C40.6897 55.1064 40.0898 54.4238 39.3037 53.9273C38.5177 53.4102 37.5972 53.1516 36.5422 53.1516C35.4252 53.1516 34.4633 53.4102 33.6566 53.9273C32.8705 54.4444 32.2603 55.1478 31.8259 56.0372C31.4122 56.906 31.2053 57.8989 31.2053 59.016C31.2053 60.0916 31.4122 61.0742 31.8259 61.9637C32.2396 62.8324 32.8395 63.5254 33.6255 64.0426C34.4116 64.5597 35.3631 64.8183 36.4801 64.8183Z" fill="#FFFFF0"/>
<path d="M48.1929 66.8972V55.5718C48.1929 54.1652 48.5859 53.0689 49.3719 52.2828C50.1787 51.4761 51.2854 51.0727 52.692 51.0727H55.95V53.5239H53.2195C52.5368 53.5239 51.999 53.7205 51.606 54.1135C51.2336 54.5065 51.0475 55.0547 51.0475 55.758V66.8972H48.1929Z" fill="#FFFFF0"/>
<path d="M65.3215 66.8972C63.6873 66.8972 62.229 66.5455 60.9465 65.8422C59.664 65.1389 58.6504 64.1977 57.9057 63.0186C57.161 61.8189 56.7887 60.4743 56.7887 58.9849C56.7887 57.4956 57.161 56.1614 57.9057 54.9823C58.6504 53.7825 59.664 52.831 60.9465 52.1277C62.229 51.4244 63.6873 51.0727 65.3215 51.0727H67.1832V53.5239H65.2284C64.1734 53.5239 63.2219 53.7722 62.3738 54.2686C61.5464 54.7444 60.8844 55.396 60.388 56.2234C59.9122 57.0508 59.6743 57.9713 59.6743 58.9849C59.6743 59.9985 59.9122 60.919 60.388 61.7465C60.8844 62.5739 61.5464 63.2358 62.3738 63.7323C63.2219 64.208 64.1734 64.4459 65.2284 64.4459H67.1832V66.8972H65.3215Z" fill="#FFFFF0"/>
<path d="M69.5137 66.8972V44.2465H72.3683V53.1206C73.0096 52.2931 73.7853 51.6829 74.6954 51.2899C75.6263 50.8969 76.5882 50.7004 77.5811 50.7004C78.9877 50.7004 80.2082 51.0003 81.2424 51.6002C82.2767 52.1794 83.0835 52.9965 83.6627 54.0514C84.2418 55.1064 84.5833 56.3682 84.5833 57.7748V66.8972L81.6768 66.8972V57.7748C81.6768 56.8233 81.4596 56.0062 81.0252 55.3236C80.5908 54.6203 80.0116 54.0824 79.2876 53.7101C78.5843 53.3378 77.8293 53.1516 77.0226 53.1516C76.2158 53.1516 75.4608 53.3378 74.7575 53.7101C74.0542 54.0618 73.475 54.5789 73.0199 55.2615C72.5855 55.9441 72.3683 56.7612 72.3683 57.7128V66.8972H69.5137Z" fill="#FFFFF0"/>
<path d="M2.10993 7.88121H0C0 7.88121 2.45339e-05 7.79846 2.45339e-05 7.63298V6.08156C2.45339e-05 5.91608 0 5.83333 0 5.83333H2.10993V1.98582C2.10993 1.79965 2.18233 1.70656 2.32713 1.70656H2.48227C3.08215 1.70656 3.54758 1.89273 3.87855 2.26507C4.2302 2.61673 4.40603 3.15455 4.40603 3.87855V5.83333H6.79521C6.94001 5.83333 7.01241 5.91608 7.01241 6.08156V7.63298C7.01241 7.79846 6.94001 7.88121 6.79521 7.88121H4.40603V16.9725C4.40603 17.1587 4.32329 17.2518 4.1578 17.2518H2.32713C2.18233 17.2518 2.10993 17.1587 2.10993 16.9725V7.88121Z" fill="#FFFFF0"/>
<path d="M10.8403 7.22961C11.1506 6.75384 11.6057 6.36082 12.2055 6.05053C12.8054 5.71956 13.5294 5.55408 14.3775 5.55408C15.7841 5.55408 16.9115 5.99882 17.7596 6.8883C18.6077 7.77778 19.0318 8.98788 19.0318 10.5186V16.9725C19.0318 17.1587 18.949 17.2518 18.7836 17.2518H16.9529C16.7874 17.2518 16.7047 17.1587 16.7047 16.9725V10.922C16.7047 9.84634 16.4461 9.0396 15.9289 8.50177C15.4118 7.96395 14.7188 7.69504 13.85 7.69504C12.9192 7.69504 12.1849 7.97429 11.647 8.5328C11.1092 9.07063 10.8403 9.91874 10.8403 11.0771V16.9725C10.8403 17.1587 10.7679 17.2518 10.6231 17.2518H8.79242C8.62694 17.2518 8.54419 17.1587 8.54419 16.9725V0.279255C8.54419 0.0930852 8.62694 0 8.79242 0H8.94756C10.2094 0 10.8403 0.713653 10.8403 2.14096V7.22961Z" fill="#FFFFF0"/>
<path d="M23.1091 12.3803C23.2332 13.456 23.6262 14.2524 24.2882 14.7695C24.9501 15.266 25.8189 15.5142 26.8946 15.5142C27.7634 15.5142 28.4563 15.4004 28.9735 15.1729C29.4906 14.9453 29.9664 14.6764 30.4008 14.3661C30.4835 14.3248 30.5559 14.2731 30.618 14.211C30.7007 14.1489 30.7731 14.1179 30.8352 14.1179C30.9386 14.1179 31.011 14.1696 31.0524 14.2731C31.1144 14.3558 31.1455 14.4489 31.1455 14.5523C31.1455 14.9867 30.9696 15.4418 30.618 15.9176C30.287 16.3726 29.7802 16.7553 29.0976 17.0656C28.4356 17.3759 27.6082 17.531 26.6153 17.531C25.6017 17.531 24.6502 17.3242 23.7607 16.9105C22.8919 16.4761 22.1782 15.8245 21.6197 14.9557C21.0819 14.0662 20.813 12.9285 20.813 11.5426C20.813 10.3842 21.0405 9.36023 21.4956 8.47075C21.9507 7.56058 22.5816 6.84693 23.3884 6.32979C24.2158 5.81265 25.1673 5.55408 26.243 5.55408C27.4634 5.55408 28.446 5.81265 29.1907 6.32979C29.9353 6.82624 30.4732 7.47784 30.8041 8.28458C31.1558 9.07063 31.3316 9.90839 31.3316 10.7979C31.3316 11.0668 31.3213 11.2943 31.3006 11.4805C31.3006 11.6667 31.2902 11.8425 31.2696 12.008C31.2489 12.2562 31.0937 12.3803 30.8041 12.3803H23.1091ZM23.1712 10.6117H29.0355C29.0562 10.1359 28.9838 9.67051 28.8183 9.21543C28.6735 8.76034 28.3943 8.37766 27.9806 8.06738C27.5668 7.75709 26.9773 7.60195 26.2119 7.60195C25.3431 7.60195 24.6398 7.87086 24.102 8.40869C23.5849 8.92583 23.2746 9.66017 23.1712 10.6117Z" fill="#FFFFF0"/>
<path d="M36.4894 55.2615L37.8606 57.7688L40.3679 59.1401L37.8606 60.5113L36.4894 63.0186L35.1181 60.5113L32.6108 59.1401L35.1181 57.7688L36.4894 55.2615Z" fill="#DB324D"/>
<path d="M0.0310284 69.2243H84.5833V70H0.0310284V69.2243Z" fill="#FFFFF0"/>
<path d="M50.8 44.5L51.6839 46.1161L53.3 47L51.6839 47.8839L50.8 49.5L49.9162 47.8839L48.3 47L49.9162 46.1161L50.8 44.5Z" fill="#DB324D"/>
</svg>
